<?xml version="1.0" encoding="utf-8"?>
<!-- Generator: Adobe Illustrator 24.1.0, SVG Export Plug-In . SVG Version: 6.00 Build 0)  -->
<svg version="1.1" xmlns="http://www.w3.org/2000/svg" xmlns:xlink="http://www.w3.org/1999/xlink" x="0px" y="0px"
	 viewBox="0 0 1274 1649" style="enable-background:new 0 0 1274 1649;" xml:space="preserve">
<style type="text/css">
	.st0{fill:#FFFFFF;}
	.st1{fill:#753935;}
	.st2{fill:#103960;}
	.st3{fill:#979998;}
	.st4{fill:#FFFFFF;stroke:#000000;stroke-miterlimit:10;}
	.st5{fill:#A2C4DE;}
	.st6{fill:#FCC648;}
	.st7{fill:#EED39C;}
	.st8{font-family:'BebasNeue-Regular';}
	.st9{font-size:65px;glyph-orientation-vertical:0;writing-mode:tb;}
	.st10{font-size:150px;}
	.st11{letter-spacing:11;}
	.st12{font-size:75px;}
	.st13{letter-spacing:5;}
	.st14{font-family:'Futura-Medium';}
	.st15{fill:#F9CF56;}
</style>
<g id="tools">
	<path class="st0" d="M720.7,1026.9c0-6,0-12-0.1-18c0-3.8,0.3-8,0.2-12.1c0.1-0.2,0.2-0.3,0.3-0.4c2.3-4.6,2.2-10.2-1.5-14.1
		c-4.3-4.5-9.7-3.9-15.2-3.1c-5.5,0.8-11,1.5-16.5,2.3c-1.7,0.2-3.1,1.1-4.2,2.4c-3,2.6-4.2,7-1.9,11.1c6.5,11.8,10.7,24.9,12,38.3
		c0.1,0.7,0.1,1.4,0.2,2c-0.4,11.4-0.8,22.7-1.2,34.1c-0.2,4.4,4.3,9.6,9,9c1.3-0.2,2.5-0.4,3.6-0.7c2.7,1.3,6.2,1.3,8.8-0.2
		c4.1-2.4,5.2-7,3.7-11.2C722.8,1054.8,720.7,1037.9,720.7,1026.9z"/>
</g>
<g id="belt_x26_pockets">
	<path class="st1" d="M753.3,1001.5c-2.6,0.1-5,0.8-7.1,2.1c-0.2-0.2-0.3-0.3-0.5-0.5c-1-0.9-2.1-1.8-3.5-2.6
		c-0.4-0.2-0.7-0.4-1.1-0.6c-2.6-2.7-6.1-4.5-10.3-4.5c-7.2,0-14.2,6-14.5,13.4c-0.2,0.9-0.3,1.8-0.3,2.7c0,1.4,0.2,2.8,0.6,4.1
		c0.2,2.4,0.9,4.7,2,6.7c-0.2,1-0.4,2.1-0.4,3.2c0,3,0.9,5.7,2.5,8c0,0.1,0,0.1,0,0.2c-0.7,6.6-1.5,13.2-2.2,19.8
		c-0.7,6.3-1.4,12.6-2.1,18.9c-0.2,1.5-0.2,2.9-0.2,4.3c-3.9,1-7.8,2.1-11.8,3c-0.5,0.1-1,0.2-1.6,0.3c-0.2,0-0.6,0-1.2,0.1
		c-1,0.1-1.9,0.1-2.9,0c-0.2,0-0.4,0-0.6,0c-0.2-0.1-0.5-0.2-0.9-0.3c-1.4-1-2.8-1.9-4.3-2.6c-1.3-1.1-2.8-1.9-4.4-2.4
		c0,0,0,0,0-0.1c-0.2-0.6-0.9-1.8-1.4-2.9c0-0.3,0-0.6,0-0.8c0.1-0.3,0.2-0.7,0.3-1c0.4-1.6,1-3.2,1.6-4.8c1.2-3.2,1.5-4,1.2-8.7
		c-0.2-4.9-1.1-9.9-0.5-16.5c0.1-1.7,0.9-3.5,0.5-5.2c-0.1-0.5-0.2-0.8-0.3-1.1c0-0.3,0.1-1.9,0-1.5c0-0.4,0.1-0.7,0.1-1.1
		c1.4,8.6-0.9,0.2-0.9-5.8c0-7.9,0.4-12.9-4.3-22.1c-1.3-2.5-5.5,0.9-7.8,2.4c-0.3-0.1-0.6-0.2-0.9-0.3c-5.2-1.4-11.1-0.3-16.4-0.1
		c-5.1,0.3-10.3,0.5-15.5,0.8c-4.6,0.3-9,1-13.2,2.6c-1.9-0.9-4-1.3-6.1-1c-1.2-0.3-2.4-0.5-3.6-0.5c-7.8,0-14.5,6.7-14.5,14.5
		c0,1.8,0.4,3.6,1,5.2c0,2.2,0.2,4.6,1,6.9c-0.6,5.8-0.5,11.7,0.2,17.5c0.3,2.2,0.6,4.4,1.1,6.6c-1.5,2.2-2.3,4.9-2.3,7.7
		c0,2.9,0.9,5.6,2.4,7.9c-0.2,4.9,1.8,9.5,4.9,13.3c-1.4,1.5-2.4,3.3-2.6,5.4c-0.1,0.8-0.2,1.6-0.3,2.4c-7,1.2-10.9,7.3-11.9,14.3
		c-1.2,9.1,0,18.7,6.5,25.6c1.8,1.9,4.2,3.1,6.2,4.7c0.2,0.3,0.9,0.5,1.1,1.4c1.1,4,4.6,8,8.7,11.6c7.2,6,11.2,14.9,16.9,22.3
		c5.7,7.4,11.9,14.8,21.6,16.7c5.3,1,10.6-0.4,14.2-3.9c1,0,2-0.2,2.9-0.4c0.2-0.1,0.4-0.1,0.6-0.2c3.2-0.2,6.2-0.5,8.6-0.1
		c5.3,0.8,10.1,0.2,14.1-3.7c1.1-1.1,2-2.4,2.7-3.8c7.1,1.6,14.7-0.1,21-5c17.1-13.5,17.6-39.6,17.7-59.4c0-3.6-1.4-7-3.7-9.5
		c1.8-3.2,3.5-6.3,5.3-9.5c1.8-3.3,2.1-7.1,1.3-10.7c4.2-10,6.5-20.4,7.5-31c7.7-0.5,14.1-6.5,14.1-14.5V1016
		C767.8,1008.5,761.2,1001.2,753.3,1001.5z"/>
	<path class="st1" d="M393.7,1088c-7.4-7.3-17.7-12.2-18.2,0.2c-0.5,11.5-4.4,22.4-6.5,33.7c-1.1,5.9-1.9,12-1.7,18
		c0.3,6,0.8,13.1,5.4,17.5c0.5,0.5,1,0.9,1.6,1.2c1.6,2.4,4.2,4.1,8,4.1c7.9,0,10.9-7.5,9.2-13.3c1-5,1.1-10.3,1.8-15.2
		c1.7-13.4,3.5-26.7,5.2-40.1C398.7,1091.5,394.7,1091.5,393.7,1088z"/>
	<path class="st1" d="M455.8,1158.9c0-0.5-0.1-1.1-0.2-1.6c2.6-3.4,1.1-9.9-4.5-9.9c-2.1,0-3.7,0.9-4.6,2.2
		c-1.2-0.2-2.5-0.3-3.7-0.5c-0.2,0-0.4-0.1-0.7-0.1c-1.9-2.9-4.3-6.1-4.5-9.6c-0.2-3-2.2-5.5-5.2-5.9c0-0.1-0.1-0.1-0.1-0.2
		c-0.5-1-1.1-1.8-1.8-2.3c-1.4-3.1-2.8-6.2-4.2-9.3c-0.5-1.1-1.2-1.9-2.1-2.3c0.1-5.6-9.4-7.4-12-1.1c-2.6,6.4-0.6,11.9,2.2,17.3
		c-1,5.2-1.7,10.7-0.9,15.8c-1.6,1.5-2.5,3.7-1.8,6c1.1,3.9,4.7,6.9,8.7,7.2c7.8,6.9,17.8,4.2,27.4,5c1.1,0.1,2.3-0.2,3.3-0.7
		c0.1,0,0.2,0,0.4,0C457,1168.9,458.5,1162.3,455.8,1158.9z"/>
	<path class="st1" d="M546,912.5c-2.7-5.3-7.9-6.4-13.4-6.7c-11.8-0.7-23.6,0.3-35.3,2.2c-0.1,0-0.2,0-0.2,0.1
		c-1.2-1.9-3.1-3.4-5.1-4c-4.2-1.2-7.7,1-9.7,4.3c-4.7,1.8-6.1,7.8-4.1,11.9c-0.3,1.4-0.6,2.9-0.9,4.4c-6,4.7-1.3,16.8,8,14.9
		c5.2-1.1,10.4-1.9,15.6-2.5c1.3,0.9,2.9,1.5,4.6,1.3c5.3-0.6,10.6-0.8,16-0.4c5.2,0.3,10.2,1.8,15.4,0.6c3.2-0.8,5-2.8,5.7-5.2
		c1.4-1.4,2.5-3.2,3.1-5.8C546.9,923,548.2,917,546,912.5z"/>
	<path class="st1" d="M664.9,902.2c-2,0-3.6,0.6-4.9,1.5c-1.3,0-2.5,0.1-3.8,0.1c-11.6,0.3-23.1,0.5-34.7,0.8c-1.1,0-2,0.2-2.9,0.5
		c-4.4-0.2-9,2.6-9.2,8.2c-0.2,3.9-0.3,7.8-0.5,11.7c-0.2,4.3,4.1,8.9,8.5,8.5c5-0.4,9.9-0.5,14.8-0.4c0.6,0,1.3-0.1,1.9-0.2
		c1.6,0.8,3.5,1.1,5.6,0.7c8-1.6,16-2.2,24.1-2c4.7,0.1,8.3-4,8.5-8.5c0.1-3.1,0.8-6.7,0.4-10.1C674,908.1,671.4,902.2,664.9,902.2z
		"/>
	<path class="st1" d="M761.9,901c-3-3-7.3-2.7-11.2-2.7c-3.8,0-7.7,0-11.5,0c-3.3,0-5.6,1.6-6.9,3.7c-0.2-0.2-0.4-0.3-0.6-0.5
		c-7.8-5.2-15.8,0.1-24.1-0.8c-4.6-0.5-8.5,4.3-8.5,8.5c0,1.7,0.5,3.2,1.2,4.4c-0.8,1.2-1.2,2.7-1.2,4.4c-0.1,4.4-0.6,9.1,2.8,12.5
		c3.7,3.7,9.2,2.5,13.8,2.1c5.9-0.5,12.7-0.4,17.5-3.5c1.8,3.2,5.4,5.1,9.6,4.1c3.6-0.9,7.2-1.7,10.8-2.2c0.7,0.2,1.5,0.3,2.3,0.3
		c4.9,0,7.7-3.5,8.1-7.3c0.1-0.6,0.2-1.2,0.2-1.8c0.2-3.8,0.3-7.6,0.5-11.4C764.7,907.3,764.7,903.7,761.9,901z"/>
</g>
<g id="pants">
	<g>
		<path class="st2" d="M557.4,1282c-3-4.6-6.8-8-11.2-10.4c1.5-1.5,2.4-3.6,2.3-5.7c-0.6-8.6-5.9-12.9-12.5-15.1
			c0.4-2.6-0.5-5.2-2.3-7.5c-2.4-3.1-6.6-3.6-10.2-3.9c-0.5,0-0.9,0-1.4-0.1c-0.5-0.7-1.2-1.3-1.9-1.8c-0.1-0.2-0.2-0.4-0.3-0.5
			c-3.4-5.1-5.4-11.2-8.2-16.6c-3-5.8-6.3-11.4-9.9-16.9c-0.2-0.3-0.5-0.7-0.7-1c-0.3-5.3-4.5-10.3-10.5-8.4c-3,0.9-5.4,1.1-8.5,0.8
			c-0.6-0.1-1.1,0-1.6,0c-0.5-0.4-1-0.8-1.6-1.2c-0.4-1.2-1-2.3-1.9-3.1c0.3-3.6-1.4-7.3-6-8.4c-2-0.5-6.9-1-9.9,0.2
			c-0.8-2.5-1.9-4.9-3.2-7.2c-1.8-3.2-5.2-4.4-8.3-4c-0.3,0-0.7,0-1,0c-4.1,0.5-8.2,1.1-12.3,1.6c-0.3,0-0.6,0.1-0.9,0.1
			c-0.2-0.3-0.5-0.7-0.8-1c-2.4-2.4-6.5-3.2-9.7-1.7c-1.3,0.1-2.5,0.4-3.6,1.2c-7.2,5.2-12.4,12.3-14.5,20.9c-0.3,0-0.5,0.1-0.8,0.1
			c-4.4,0.7-13.6,1.6-16.2-3.1c-0.9-1.6-2.1-2.7-3.4-3.4c1.7-5.4,1-11.6-1.2-16.9c0.1-3.6-1.8-7.3-5.6-8.4c-0.8-0.8-1.6-1.5-2.5-2.1
			c-1.7-1.2-3.5-2.2-5.5-2.8c-0.9-0.3-1.9-0.4-2.9-0.5c-1.4-3.8-1.8-8.9-2-12.6c-0.4-6.1-0.2-12.4,0.6-18.5
			c1.7-12.2,5.5-24.1,9.8-35.7c2-5.3-3.1-10.7-8.2-10.8l-10.7-0.2c-3.9-0.1-6.4,2.1-7.5,4.9c0-2.4-0.7-4.9-2-7.2
			c-1-1.7-2.2-3.1-3.6-4.3c-0.2-0.2-0.5-0.4-0.8-0.6c-0.3-0.3-0.7-0.6-1.1-0.9c-0.1-0.3-0.2-0.5-0.2-0.8c-0.3-1.3-0.5-2.7-0.7-4
			c-0.6-3.6-3.4-6.5-6.8-8.2c-3.1-3.8-5.2-8-6.6-12.8c-3-10.5-19.4-6-16.4,4.5c1.4,4.9,3.4,9.4,6,13.6c-1.5,2.8-1.9,6.1-1.3,9.7
			c0.5,3.3,1.3,6.4,2.7,9.4c-3.4,0.7-6.3,3.4-6.2,8c0.1,2.4,0.6,4.7,1.5,6.9c-1.1,1.4-1.8,3.1-1.8,5.2c0.4,21,0.8,42.1,1.4,63.1
			c0.3,8.8,0.5,17.6,0.8,26.4c-3.4,0.8-6.3,3.5-6.5,7.9c-0.8,14.7-0.7,29.4,0.3,44.1c0.5,7,1.2,14,2.1,21c0.2,1.5,0.4,3,0.7,4.6
			c-3.1,8.9-4.9,18.1-5.6,27.4c-1,6.9-0.8,14,0.5,21c0,0.1,0.1,0.3,0.1,0.4c-0.8,2-0.6,4.4,1.1,6.7c0.4,0.6,0.9,1.1,1.3,1.7
			c0,0,0,0,0,0c0,0,0,0,0,0c3.6,4.6,7.6,8.6,12.1,12.1c3.7,4.1,7,8.4,9.6,13.4c5.3,10,11.1,19.2,23.5,20c3.9,0.3,6.5-2.2,7.6-5.2
			c0.6,0.8,1.3,1.6,2,2.4c4.5,4.5,11.8,6.8,18,4.8c1.7-0.6,3.5-1.1,5.2-1.6c1.2-0.3,2.4-0.6,3.6-0.8c0.4-0.1,0.7-0.1,1-0.2
			c0.7,0,3.6-0.2,4.1-0.2c1.5,0,2.9,0,4.4,0.1c0.3,0.4,0.6,0.9,0.9,1.3c4.1,5.3,12.7,9.4,19.4,6.6c4-1.7,8.1-2.9,12.3-3.8
			c-0.8,0.3,4.2-0.4,4.9-0.5c3.8-0.3,7-0.9,10.3-2.6c3.8,2.1,8.2,3.4,13,3.8c3.7,0.3,7.2-0.2,10.4-1.3c11.3-2.5,13.7-3.8,22.6-1.8
			c3.2,0.7,5,1,7.9-0.5c0.3-0.2,0.5-0.3,0.7-0.4c0.2,0,0.5-0.1,1-0.2c1.6-0.4,3.2-0.9,4.7-1.3c1.6-0.4,3-0.9,4.3-1.6
			c2,0.6,4.2,0.9,6.4,0.9c0.1,0,2.7-0.3,4.9-0.6c0.1,0,0.1,0,0.2,0.1c8.9,2.5,18.6,1.4,25.5-5.1c7-6.5,7.1-15.6,6.5-24.4
			c-0.2-2.6-0.4-5.1-0.6-7.7c1.1-1.6,2-3.5,2.4-5.5c0.3-1.7,0.6-3.4,0.7-5c0.5-5.6,1-11.3,1.5-16.9
			C560.8,1295.9,561.6,1288.7,557.4,1282z M357.4,1275.2c0.4,0.2,0.9,0.4,1.4,0.5c-0.9,3.6,0.2,7.7,3.2,9.7
			c-0.5,1.7-0.8,3.6-0.7,5.5c0.6,10.3,0.8,20.7,0.4,31c-0.2,5.2-0.5,10.3-1,15.5c-0.2,2.6-0.5,5.2-0.8,7.7c-0.1,0.9-0.2,1.8-0.3,2.7
			c-1-2.8-2.2-5.6-3.5-8.3c0.6-2.6,0.7-5.4,0.8-8c0.2-6.1,0.3-12.1,0.3-18.2c1.2-0.8,2.2-1.9,3-3.4c3.9-6.9-0.1-17.5-3.7-24.1
			c0.8-1.6,1-3.5,0.4-5.6c-0.7-2.4-1.8-4.5-3.1-6.3c0,0,0,0,0-0.1c0.4,0.2,0.8,0.4,1.2,0.5C355.7,1274.8,356.6,1275,357.4,1275.2z
			 M343.6,1236c0,3,0,5.9,0,8.9c-0.4-3.2-0.9-6.4-1.3-9.6c0.4-2.9,0.9-5.7,1.3-8.6C343.6,1229.8,343.6,1232.9,343.6,1236z
			 M343.4,1188.3c0,6,0,12,0.1,18c-0.5-1.4-1.3-2.7-2.5-3.6C341.9,1197.9,342.7,1193.1,343.4,1188.3z"/>
		<path class="st2" d="M519.4,1368.6c-0.1,0-0.2,0-0.2,0C519.2,1368.6,519.2,1368.6,519.4,1368.6z"/>
	</g>
	<path class="st2" d="M730.1,1174.5c-11.4-3.2-21.2-0.6-33,0.7c-5.7,0.7-12.1,2.2-17.6,3.9c-5.2,1.6-10.6,0.9-16.3,1
		c-7.2,0.1-16.3,5.9-10.4,12.9c4.4,5.1,9.4,9.5,14.8,13.4c0.2,0.9,0.5,1.8,0.9,2.7c2.1,4.5,4.9,8.4,8.1,12.1c1,1.1,2.1,1.9,3.2,2.4
		c0.7,1.1,1.4,2.3,2.2,3.4c4.3,6.4,12.1,11.1,19.9,8.1c4.8-1.9,9.2-8.1,5.4-13.2c-5.9-7.9-11.4-17.7-19.3-23.6
		c-2.6-2-5.5-3.5-8.2-5.2c4-1.1,8-2.3,12.1-3.1c11.1-2.1,22.5-1.2,33.3,1.9C736.5,1195,741.2,1177.7,730.1,1174.5z"/>
	<path class="st2" d="M795,1290.1c-1-2.9-3.1-5.2-4.2-8c-2.4-6-2.6-12.7-2.9-19.1c-0.2-4.3-3.7-8.8-8.5-8.5
		c-12.2,0.9-24.4,0.9-36.6-0.1c7.9-0.3,15.7-0.7,23.6-1c11.5-0.5,11.6-18.5,0-18c-2.2,0.1-4.4,0.2-6.6,0.3c-0.6-1.4-1.5-2.7-2.7-3.8
		c2.6-1.5,4.4-4.3,4.4-7.7c0.4-15.9,0.9-31.9,1.3-47.8c0.1-2.8-1.5-5.6-3.7-7.2c0.2-0.8,0.4-1.6,0.5-2.5c0.4-1.2,0.7-2.4,1-3.7
		c0.1-0.8,0.2-1.5,0.2-2.3c0.9-5.3,1.3-10.6,0.9-16c-0.3-3.5-2-6-4.2-7.4c0.7-6.3,1.3-12.6,1.7-19c3-22.6,6.3-45.2,11.1-67.5
		c3.3-15.7,5.7-33.1-3-47.4c0-0.6-0.1-1.2-0.2-1.7c4.1-2.4,4.8-8.2,2.9-12.3c-4.6-10.3-9.1-20.7-13.7-31c-2.1-4.7-4.1-9.7-9.4-11.3
		c-5.1-1.5-11.3-0.2-16.6,0.2c-10.9,0.7-21.9,1.5-32.8,2.2c-3.4,0.2-6.9,0.5-10.3,0.9c-0.8-0.5-1.6-0.9-2.6-1
		c-3.9-0.6-7.9-1.2-11.8-1.6c1.3-0.4,2.3-1.2,3-2.2c1.8,0.8,3.8,1.1,5.7,0.5c0.3-0.1,0.6-0.2,0.9-0.4c2,1.1,4.3,0.9,6.3-0.4
		c0.1,0,0.1,0,0.3,0c0.5-0.1,1-0.2,1.5-0.2c0.9-0.1,1.7-0.3,2.6-0.6c0.5-0.2,0.9-0.4,1.3-0.6c0.6,0.4,1.4,0.7,2.3,0.8
		c15.7,0.8,31.5,1.5,47.2,0.7c1.5,0.4,3,0.7,4.6,0.9c3.5,0.5,6.8,0,10.1-1.4c0.9-0.3,1.7-0.7,2.5-1.1c3.3-0.5,6.7-1,10-1.7
		c2.1-0.4,3.1-2.4,3.3-4.3c0.5-3.9-3.3-6.4-6.8-6.3c-3.4,0.1-6.3,2-9.2,3.7c-1.1,0.1-2.2,0.3-3.3,0.4c-0.7-0.7-1.7-1.1-3.1-0.9
		c-3.7,0.4-7.4,0.7-11.1,0.9c-1-0.2-2-0.4-2.9-0.6c-6-0.8-11.9-0.6-17.8,0.4c-1.1,0.2-1.9,0.7-2.4,1.3c-6.1-0.2-12.2-0.5-18.3-0.8
		c-0.2-1.5-0.8-2.9-1.9-3.9c0.2-0.8,0.4-1.6,0.5-2.3c0.9-4.9,0.9-9.8,0.9-14.8c0-4.1,0.6-8.8-0.5-13c6.3-1.2,12.5-1.5,18.9-1.4
		c7.6,0,15.6-0.7,23.1,0.5c3.4,0.5,5.6-2.3,5.6-4.9h12c5,0,5.7-6.6,2.1-8.5c0.3-2.4-1.1-5.2-4.3-5.4c-48.3-2.9-96.5,6.2-144.9,2.8
		c-1.6-0.1-2.8,0.6-3.5,1.7c-22.7-1.2-45.4-1.2-68.1-0.1c-0.9,0-1.8,0-2.7,0.1c-2.2,0.2-3.6,1.7-4.1,3.4c-2.7,0-5.5,0-8.2,0
		c-11.3-2.1-22.8-2.1-34.3,0.1c-1.2,0.2-2.1,0.9-2.6,1.7c-3.8-0.4-7.6-0.8-11.3-1.5c-5.7-0.9-8.1,7.8-2.4,8.7
		c18.6,3,37.4,3.5,56.1,1.3c0.9-0.1,1.6-0.4,2.3-0.9c3.4-0.1,6.9-0.1,10.3-0.2c-0.7,2.5,0.7,5.9,4.1,6.2c6.2,0.5,11.5-1.2,17.6-2
		c5.9-0.8,12.1-0.5,18-0.7c0.6,0,1.1-0.1,1.6-0.3c0.5,0.3,1.2,0.5,1.9,0.6c10.3,0.9,20.6,0.9,30.9,0c1.4-0.1,2.4-0.7,3.2-1.6
		c0.2,0,0.5,0.1,0.7,0.1c17.9,0.2,35.8,0.4,53.8,0.6c0,0.2,0,0.4,0,0.7c0.4,5.6,0.7,11.2,1.1,16.9c0.1,2.3,0.2,4.8,0.4,7.3
		c-0.5,0.3-0.9,0.7-1.3,1.1c-1.4,1.5-2.8,3.8-2.5,6c0,0,0,0.1,0,0.1c-0.2,0.4-0.3,0.7-0.5,1.1c-5.3-1.9-12.4-0.5-17.6-0.3
		c-7.8,0.3-16,0.1-23.6,2.2c-6.9,0-13.8-0.1-20.7-0.3c-2.4-0.1-4,1-5,2.6h-16.7c-1.6,0-2.8,0.7-3.5,1.8c-11.8-1.2-23.7-1.6-35.6-1.3
		c-0.5,0-0.9,0.1-1.3,0.2c-0.1,0-0.3,0-0.4,0c-13.6-0.3-27.2-0.5-40.8-0.8c-1.3,0-2.3,0.4-3,1.1c-0.2,0-0.3-0.1-0.5-0.1
		c-8.3-0.1-16.5-0.5-24.7-1.2c-5.8-0.5-5.7,8.5,0,9c8.2,0.7,16.5,1.1,24.7,1.2c1.3,0,2.3-0.4,3-1.1c0.2,0,0.3,0.1,0.5,0.1
		c13.6,0.3,27.2,0.5,40.8,0.8c0.5,0,1-0.1,1.5-0.2c0.1,0,0.2,0,0.3,0c13.4-0.4,26.7,0.2,40,1.8c2.1,0.2,3.4-0.8,4-2.2h13.9
		c0.3,0,0.5,0,0.8-0.1c0.7,0.3,1.4,0.4,2.2,0.5c5.7,0.2,11.5,0.2,17.2,0.3c0.3,0.2,0.7,0.3,1.1,0.4c-10,2-20.1,4.3-30,3.1
		c-3.2-0.4-6.1,1.7-7.7,4.4c-1.2-2.2-3.2-3.9-5.5-4.9c-6.6-2.7-15.7-1.1-22.7-1.1c-2.2,0-3.7,1.1-4.6,2.6c-1.9-0.1-3.8-0.1-5.8-0.1
		c-1.7-0.9-3.4-1.7-5-2.6c-3.4-1.8-6.6,0.2-7.8,2.9c-1.1-2.7-3.7-3.7-6.1-3.5c-0.4-0.1-0.9-0.1-1.3-0.1c-2.8,0.2-5.4,0.8-8,1.7
		c-1-0.4-1.9-0.7-3-0.9c-7.9-1.8-16.6-1-24.6-1.1c-2.3,0-3.9,1.2-4.7,2.9c-1.8-1-3.7-1.7-5.8-2.2c-6.9-1.4-9.9,9.2-2.9,10.6
		c0.9,0.2,1.7,0.5,2.5,0.8c0,0.2,0,0.5,0,0.7c1,11,10.9,19.3,17.4,27.5c7.7,9.7,15,19.6,22.1,29.7c0.5,0.7,1.1,1.3,1.7,1.6
		c1,2.6,2.1,5.2,4.5,6.9c0.6,0.5,1.3,0.8,2,1.1c0.2,3.3,2.2,6.3,5.2,7.7c0.5,1.7,1,3.5,1.9,5c1.3,2.5,3.3,4.3,5.7,5.4
		c-0.1,2.2,0.8,4.5,3.1,5.7c0.2,0.9,0.6,1.7,1.2,2.4c2,2.3,3.5,4.9,4.9,7.6c0.8,1.6,2,2.4,3.3,2.7c1.3,2.7,2.5,5.5,3.6,8.4
		c1.9,4.8,3.8,10,9.9,9.9c1.5,0,2.8-0.6,3.8-1.6c0.4,3.6,0.8,7.6,2.4,10.7c1.4,2.6,3.3,4,5.7,5.1c0.2,0.7,0.4,1.5,0.6,2.2
		c0.9,3.1,2.9,5,5.2,5.8c1.4,3.6,3,7.2,4.7,10.8c1.3,2.7,5.1,3.4,7.5,2c2.8-1.6-1.2-4.4-1.1-7.8c0.1-2.9,0.6-5.1-0.4-7.8
		c4.7-2.1,8.6-6.6,9.8-11.8c1.2-5,0.5-9.9,2.1-14.8c1.6-5,2.7-10,1-15.1c-0.8-2.4-2.2-4.5-4.1-6.3c0.1-0.3,0.2-0.7,0.3-1
		c1-3.9,0.5-8.2,0.5-12.2l-0.1-15.2c0-1.7-0.4-3.2-1.1-4.4c0.5-0.8,1-1.6,1.3-2.4c1.2-3,2.1-5.9,2.8-9c0.3-0.1,0.6-0.1,0.9-0.2
		c7.5-2.7,15.1-4.9,22.8-6.6c6.4-0.5,12.7-1.4,19-2.8c8.2,0.2,16.5,0.8,24.6,1.4c3.7,0.3,10.3-1.9,8.7-6.6
		c-1.7-5.1-4.5-12.7,0.8-15.7l22.6-0.8c0.9,0,1.7-0.2,2.4-0.4c0.7,0.1,1.5,0.3,2.2,0.4c0.1,2.6,0.4,5.2,0.7,7.7
		c-3,1.4-8.9,7.4-5.2,7.9c3.7,0.6,2.9,8.4,7.4,6.5c19.7-8.2,21.5,0.5,28.5,6.9c-0.5,12.2,1.4,24.1,3.2,36.2c0.2,1.2,0.7,2.3,1.5,3.2
		c-0.8,3.5-1.6,6.9-2.2,10.2c-2.3,12.4-4.3,24.9-6.1,37.5c-1.4,1.4-2.3,3.4-2.4,6c-0.1,5.3-0.3,10.5-0.6,15.8
		c-1.4,10.7-2.7,21.5-4.1,32.2c-4.3,5.6-3.4,12.2-7.8,17.8c-3.3,3.4-11.6,6.2-14.1,10.3c-9.8,2.9-19.8,4.4-30,4.5
		c-11.2,0.2-11.6,17.1-1.1,18c-1,0.9-2,1.9-2.9,2.8c-5.4,5.3-1.5,15.7,6.4,15.4c1.6-0.1,3.3-0.1,4.9-0.2c-0.6,1.3-1,2.7-1.1,4
		c-0.4,4,0.7,7.2,2.6,9.7c-1.4,1.6-2.2,3.7-2.1,5.7c0.5,6.7,3.9,12.1,10,15.1c2.3,1.1,4.6,1.7,7.1,2c-0.3,0.5-0.5,1.1-0.7,1.7
		c-0.9,3.5,0.7,7.8,3.9,9.7c0.1,0.5,0.2,1,0.4,1.4c2.1,5,5.2,8.8,9.2,11.6c0.1,1.2,0.4,2.4,0.9,3.5c3.8,7.2,7.7,14.5,11.5,21.7
		c3.1,5.8,7.9,12.3,7.5,19.1c-0.2,2.3,0.6,4.1,1.7,5.4c-0.6,2.8,0.2,6.4,2.3,8.1c5.9,4.9,14,5.7,20.5,2.1c2.1,0.5,4.4,0.2,6.6-0.8
		c1.5-0.7,3-0.7,4.6-0.6c5.7,0.2,9.4-5.5,8.2-10.8c0-0.2-0.1-0.4-0.1-0.5c2.3-2.4,4.1-5.3,5.5-8.9c2.2-6,3.4-12.6,4.6-18.9
		C795.9,1296,796.1,1293.2,795,1290.1z M736.3,890.2c-0.1,0.3-0.1,0.7-0.1,1c-6.3-0.4-12.7-0.1-19-0.1c-7.8,0-15.3,0.5-22.9,2.1
		c-0.7,0.2-1.3,0.4-1.8,0.8c-3.3-1.7-7.3-1.4-10.3,0.4c-0.2,0-0.3,0-0.5,0c-0.7-0.9-1.8-1.5-3.3-1.5c-0.8,0-1.6,0-2.4,0
		C696.1,891.6,716.2,890.1,736.3,890.2z M542.6,965.5c-0.5-1.7-1-3.4-1.6-5.1c0.2,0.1,0.4,0.2,0.6,0.3c0.2,1.2,0.7,2.2,1.6,3
		c0.1,0.7,0.1,1.5,0.2,2.3C543.1,965.7,542.9,965.6,542.6,965.5z M546.6,998.8c-0.1-3.9-0.2-7.9-0.3-11.8c1.1,3.3,2.7,6.2,5,8.4
		C549.3,995.6,547.4,996.7,546.6,998.8z M575.3,999.1c-0.1,0.4-0.2,0.9-0.2,1.3l0,1.7c-0.1-1-0.2-2-0.3-2.9
		C575,999.2,575.2,999.1,575.3,999.1z M574.6,1051.2c-0.3-0.7-0.7-1.4-1.3-1.9l2.4,0C575.3,1049.9,574.9,1050.5,574.6,1051.2z
		 M587.4,982.4c-0.2,5.9-0.3,11.9-0.1,17.8c-0.8-1.7-2-3.2-3.9-4.6c-0.4-0.3-0.8-0.5-1.2-0.6c0.1-0.1,0.2-0.2,0.2-0.3
		c2.3-3,2.6-6.7,2.8-10.4c0.2-5,0.2-10,0.3-15c0.3-0.1,0.6-0.2,0.9-0.3c-0.3,0.9-0.5,1.9-0.5,3c0,2.2,1,4.5,2.6,6.2
		C587.9,979.6,587.5,981,587.4,982.4z M591.2,1035.6c-1.6-6.8-2.5-13.6-2.5-20.6c0.7,2.8,1.9,5.3,3.8,7.6c-0.8,1.3-1.3,2.9-1.3,4.8
		C591.2,1030.1,591.2,1032.9,591.2,1035.6z"/>
	<path class="st2" d="M607,1343.1c-3.3-5.5-7.6-10.8-11.1-16.4c1.8-1.8,2.1-5-0.8-6.9c-2.5-1.6-4.2-3.8-5.1-6.3
		c-0.5-2.1-0.8-4.3-0.8-6.5c0-3.1-2.4-4.5-4.7-4.3c-0.5-1.4-1.1-2.7-2-4c-1.3-1.8-3.2-3.2-5.4-3.8c-1.5-0.4-10.4,1.2-10.4,1.2
		c-2.6-5.2-10.4-0.6-7.8,4.5c0.5,1,1.2,1.9,2,2.5c-0.1,0.3-0.2,0.7-0.3,1c-2.1,1.5-2.1,5.1-0.4,6.9c1.2,1.3,2.5,2.4,4,3.3
		c-0.4,0.4-0.8,0.8-1.1,1.5c-0.5,1.1-0.8,2.2-0.8,3.3c-1.4,1.6-1.9,4.2-0.2,6.3c4.2,5.2,9.2,9.7,14.9,13.3c2.7,1.7,6.7,4.2,10.4,4.6
		c4.4,5.2,10.1,7.3,17,6.3C607.2,1349.3,608.4,1345.3,607,1343.1z M575.1,1320.5c-0.8-0.6-1.7-1-2.6-1.4c-0.6-0.4-1-0.5-1.2-0.4
		c0-0.2,0-0.3,0-0.5c0.8,0.4,1.6,0.7,2.4,1.1c3.7,1.8,7.5,3.6,11.2,5.4c0.6,1.1,1.1,2.2,1.8,3.3c-2.9-1.4-5.7-2.7-8.1-4.8
		C577.3,1322.3,576.3,1321.3,575.1,1320.5z"/>
</g>
<g id="saw">
	<path class="st3" d="M740.1,1327.9c0.2-1,0.4-2.1,0.4-3.2c0.3-7.1-3-14.4-8.8-18.4c-3.9-8.1-8.3-16-12.8-23.7
		c-5.6-9.5-11.7-18.8-18.2-27.7c-3.5-4.9-7.2-9.6-11-14.4c-3.4-4.3-6.8-8.7-11.8-10.9c-7.6-15.4-17.5-29.4-28.2-43.1
		c-15-19.2-29.3-34.8-41.8-55.4c-2.6-4.2-7-6.8-11.7-7.1c-7.3-14.3-17.3-26.7-27-39.5c-11.3-14.8-22.5-29.5-33.8-44.3
		c-0.6-0.7-1.1-1.4-1.8-2c-1.1-2-2.5-3.8-4.1-5.4c-0.9-1-2-1.8-3-2.8c-0.1-0.1-0.2-0.2-0.3-0.3c-0.1-0.1-0.2-0.3-0.3-0.5
		c-2.6-4.1-4.1-8.7-6.3-13c-2.2-4.4-5.2-8.3-8.2-12.1c-3.3-4.2-7-8.1-10.7-12c0.2-2.7-0.4-5.5-2-7.8c-1.1-1.5-2.3-2.9-3.7-4.1
		c-0.7-1.5-1.6-2.8-2.9-3.9c-2.5-2.1-3.2-2.9-4.4-5c-0.6-1.1,0,0.3-0.7-1.5c-0.1-0.3-0.2-0.6-0.3-0.9c-0.2-0.8-0.5-1.6-0.9-2.4
		c-0.3-0.9-0.7-1.8-1.2-2.8c-1.3-2.7-3.1-5.3-5.3-7.4c-0.8-0.8-1.8-1.5-2.7-2.3c-2-3.4-4-6.9-6-10.3c-1.8-3.1-4.2-5.1-6.8-6.1
		c-1.1-1.9-2.2-3.7-3.3-5.6c-4-6.7-13-9.2-19.8-5.2c-0.9,0.5-1.7,1.1-2.4,1.8c-2.5-0.1-5.1,0.5-7.5,1.9c-1.1,0.6-2,1.4-2.9,2.4
		c-1.3-0.2-2.6-0.1-3.9,0.3c-6.2,2.2-14.1,3.8-16.1,11c-0.2,0.7-0.3,1.4-0.4,2.1c-0.5,0.4-0.9,0.9-1.2,1.4c-1.1,2.2-0.8,4.5,0.6,6.3
		c0,0.5,0.1,1,0.2,1.4c-2,2.7-2.6,6.6-0.6,9.5c0.3,0.4,0.6,0.8,0.8,1.3c-0.1,0.6-0.2,1.2-0.2,1.9c0,3.6,0,7.3,0,10.9
		c0,1.8,0.4,3.2,1.2,4.4c-0.2,6.7-0.4,13.4-0.5,20.1c-0.2,6-1.4,13.3-0.1,19.5c-0.5,4.5-0.8,9.2,0,13.4c-1.2,9.1-1.7,18.4-1.4,27.6
		c-0.6,9.5-9.9,10.8-15.6,13.2c-6.2,0.8-5.9,10.9,0.9,10.9c0.1,0,0.2,0,0.3,0c2.8,8.6,9.2,14.6,18.4,17.7c1.6,0.5,3.1,0.9,4.8,1.2
		c-0.2,0,2.3,0.1,4.6,0.3c0.2,1.4,0.4,2.8,0.8,4.2c1.7,6,6,9.8,10.1,14c1.2,1.2,2.2,2.4,3.4,3.6c0.5,0.6,0.8,1,1,1.2
		c0.4,0.6,0.9,1.2,1.3,1.8c2.5,3.7,4.5,7.5,6.3,11.6c2.6,5.8,9.6,8.9,16.1,8.6c0,0.2,0.1,0.3,0.1,0.5c0,0.3,0.1,0.6,0.1,1
		c0,2.1,0,4.2-0.1,6.3c-0.9,1.3-1.4,2.9-1.4,4.6v10.4c0,4.4,3.9,8.7,8.5,8.5c2.1-0.1,4.1-0.9,5.6-2.2c2.3,7.1,8.6,12.5,16.6,12.5
		c3.2,0,6.3-1,9-2.7c4.4,11,9.9,21.3,16.5,31c0.1,5.1,2,10,5.9,13.7c5,4.9,11.8,6.7,18.6,7.1c0.5,0,1.1,0,1.6,0
		c0.6,5.4,3.5,10.1,7.7,13.1c0.3,5.3,3.2,10.3,7.4,13.5c2,4.7,4.2,9.3,6.8,13.6c3.1,5,7.3,9.1,13.1,10.7c3,0.9,6.1,0.9,9,0.4
		c3.4,14.8,9.6,28.9,18.3,41.2c3,4.3,7.7,7.5,12.7,8.4c5,5,11.2,8.4,18.9,8.4c2.9,9,5.5,18.2,7.6,27.5c1.9,8.4,9.3,12.5,16.7,12.5
		c1.2,2.5,3.6,4.4,7.3,4.4c1.1,0,2.1-0.2,2.9-0.5c4.1,9.6,11.2,17.9,14,28.1c0.2,0.7,0.5,1.4,0.8,1.9c-1.6,5,0.9,11.5,7.7,11.5
		c1.8,0,3.3-0.5,4.5-1.2c1.1,1.3,2.3,2.5,3.8,3.3c7,4.1,15.7,1.5,19.8-5.2c3.2-5.1,6.2-10.4,7.8-16.3c1.8-6.3,1.7-13,1.3-19.5
		c0-0.7-0.1-1.4-0.3-2.1c2.3-2.6,3.7-6.1,4.2-9.9c1.2-10.1,2.1-20.2,2.8-30.3c2-1.7,3.6-3.9,4.7-6.8
		C742.1,1342.6,741.9,1335.2,740.1,1327.9z M497.6,1056c-1.2-1.9-2.5-3.8-3.8-5.7c1,0.3,2.1,0.5,3.1,0.6c0.5,0.8,1,1.5,1.5,2.3
		C498.1,1054.2,497.8,1055.1,497.6,1056z M584.9,1169.3c0.1,0.1,0.3,0.2,0.4,0.3c0.4,0.3,0.9,0.6,1.3,0.8c1.2,2.3,2.4,4.5,3.7,6.8
		C588.5,1174.6,586.6,1172,584.9,1169.3z M634.6,1232.2c1,0.3,1.9,0.6,2.9,0.7c1,2.1,2.1,4.2,3.2,6.2
		C638.6,1236.8,636.6,1234.5,634.6,1232.2z M682.4,1294.2c-3.7-6.2-7.8-12.9-14.4-16.1c-1.1-2.6-2.8-4.9-4.8-7
		c-0.3-0.3-0.5-0.6-0.7-0.8c-2.1-4.8-4.8-8.9-8.6-12.6c-0.8-0.8-1.6-1.4-2.5-1.8c-2-4-4.5-7.4-7.5-10.4c0-0.4-0.1-0.9-0.2-1.3
		c4.8,7.3,10.5,14,17,19.7c5.3,6.7,10.8,13.3,16.6,19.6c1.8,2,3.7,4,5.4,6C682.4,1291.1,682.2,1292.6,682.4,1294.2z M705.9,1352.7
		c-0.5-6-1.4-12-3-17.7c-0.1-1-0.2-2-0.4-3.1c0-0.2-0.1-0.4-0.1-0.6c1.4,1,2.8,1.8,4.3,2.6C706.6,1340.1,706.3,1346.4,705.9,1352.7z
		"/>
	<path class="st1" d="M473.3,914.1c6.5-4.6,4.7-17.4-5.3-17.4c-0.1,0-0.3,0-0.4,0c-2-6.2-4.4-12.3-11.6-13.2
		c-0.1-0.2-0.3-0.4-0.4-0.6c-7.3-10.2-14.5-20.5-21.8-30.7c0.1-1.7-0.2-3.5-1.1-5.4c-10-20.4-23.8-39-40.5-54.5
		c-3.2-3-6.9-3.2-10-1.8c-10.9-16.5-22.3-32.5-38.5-43.4c-3.9-3.5-8.5-6.2-13.9-7.4c-2.9-0.7-6,0-8.3,1.7c-0.7-0.2-1.4-0.3-2.1-0.4
		c-13.8-1-33.8,3.1-41.5,16.2c-1.2,0.9-2.3,2-3,3.2c-1.3,2-1.8,4.1-1.8,6.3c-2.3,0.9-4.1,2.9-4.8,6.1c-2.2,9.9,1.6,18.4,7.9,26
		c1.4,1.7,3,3.2,4.6,4.8c0.1,1.3,0.5,2.6,1.3,3.8c2.5,3.6,5,7.2,7.5,10.8c1.9,2.7,4.3,4.1,6.7,4.4c3.4,4.2,6.6,8.6,9.7,13.1
		c4.3,6.2,8.8,12.3,13.3,18.3c-4.4-2.4-11.3,0.7-11.4,6.6c-2.6-3.3-5.3-6.7-7.9-10c-3.8-4.8-8.1-13.7-15.1-13.8
		c-6.4-0.1-6.4,9.9,0,10c-1.2,0,1.7,3,1.9,3.2c0.8,1,1.6,2,2.4,3.1c2.2,2.8,4.5,5.6,6.7,8.5c4.3,5.4,8.5,10.8,12.8,16.1
		c1.5,1.9,3.3,2.1,4.9,1.3c7.8,17.5,20.5,32.5,33.5,46.6c-0.2,0.1-0.4,0.3-0.6,0.4c-3.2,2.7-3.5,6.3-2.2,9.3
		c-1.9,15.6-3.2,31.3-4,47.1c-0.4-0.5-0.7-1.1-1.1-1.6c0-0.1,0-0.3,0-0.4c0-1.1-0.3-2-0.8-2.8c-0.8-2.3-2.2-4.1-4.3-5.1
		c0,0,0-0.1,0-0.1c-0.1-2.7-2.2-5-5-5h-3.7c-2,0-3.9,1.3-4.7,3.1c-1.2-0.8-2.3-1.5-3.2-2c-5.1-2.6-10.5-4.4-16.1-5.5
		c-2.3-0.5-4.5,0.6-5.6,2.3c-0.6-1.3-1.2-2.5-1.7-3.8c-1.1-2.4-3.2-3-5.2-2.4c0-0.5-0.1-1-0.1-1.4c-0.1-0.9-0.3-1.6-0.7-2.3
		c0.6-1,0.9-2.2,0.7-3.6c-2.4-14.1,2.6-28.3,2.4-42.4c0-1.8-0.9-3.2-2.1-3.9v-39c0-6.4-10-6.4-10,0v48.2c0,1.7,0.7,2.9,1.7,3.7
		c-1,12-3.7,23.9-1.7,36c0,0.2,0.1,0.5,0.2,0.7c-0.4,0.7-0.6,1.6-0.5,2.6c1.1,17.9,12.1,31.6,24.1,43.9c0.6,0.7,1.3,1,2,1.3
		c1.6,2.5,3.2,4.9,5.1,7.2c-3.5,2-4.3,7.9,0.8,9c3,0.4,5.4,6.4,6.9,8.8c2.4,3.8,4.9,7.6,7.3,11.5c1.2,1.9,3,2.5,4.7,2.3
		c3.1,5.7,7.1,10.7,11.7,15.1c2.7,14.9,16.9,19.1,30.6,20.5c2.1,0.2,4-0.8,5.4-2.3c2.5,2.3,5.8,2.6,8.5,1.3c1.1,0.4,2.4,0.5,3.8,0.2
		c3.2-0.6,6.4-1.1,9.6-1.7c3.2-0.6,5.5-4.2,5.5-7.2c-0.5-36.3-0.3-72.5,0.7-108.8c0-0.9-0.1-1.6-0.3-2.4c0.9-6,1.4-11.9,1.2-17.9
		c7.6-2.1,15.6-2.8,23.2-4.9c8.2-2.2,18.6-4.6,24.5-11c0.5-0.6,1-1.1,1.4-1.7c0.5,1.7,1.1,3.3,1.6,5c1.4,4.1,4.6,6.2,8,6.5
		c0,0.1,0.1,0.3,0.1,0.4c0,0,0,0,0,0.1c0,0.5,0,0.9,0,1.4c-0.1,2.1,1.9,4.1,4,4c2.2-0.1,3.9-1.8,4-4c0.1-1.4-0.1-2.8-0.4-4.1
		c2.6-2,4-5.3,2.6-9.4L473.3,914.1z M324.2,864.6c-0.6-2-1.2-4-1.7-6c0-0.1,0-0.2-0.1-0.2c1.2,1.6,2.4,3.2,3.7,4.9
		C325.4,863.5,324.8,864,324.2,864.6z M316.7,1002.7c-2.6-3.5-4.8-7.6-6.4-10.2c-0.5-0.9-1.2-1.5-2-1.8c-0.9-1.7-1.8-3.5-2.6-5.2
		c4.4,6.4,9.1,12.6,14,18.6L316.7,1002.7z M339.8,1004.5c-3.8-0.2-7.6,1.3-10.5,3.8c-1.5-0.7-3-1.3-4.5-2c1.3-0.3,2.4-1,3.2-2
		c2.5,2.4,7,1.7,8.3-2.2c0.7-2.1,1.6-5.3,2.3-8.8c0.2-0.5,0.3-1.1,0.4-1.8c0-0.1,0-0.3,0-0.4c0.1-0.4,0.1-0.8,0.2-1.2
		c0.4-0.2,0.7-0.4,1.1-0.7C339.9,994.3,339.8,999.4,339.8,1004.5z M360.7,954.9C359.5,954.2,361.1,953.6,360.7,954.9L360.7,954.9z
		 M369.7,925.9c-0.5-0.4-1.1-0.8-1.7-1.2c-0.7-1.4-1.4-2.8-2.1-4.2c1.4,1.5,2.8,2.9,4.2,4.3C370,925.2,369.8,925.6,369.7,925.9z"/>
</g>
<g id="shirt">
	<path class="st4" d="M787.6,580.5c-1.9-3.7-4.4-6.8-7-10.2c-2.5-3.3-4.9-6.6-8.1-9.3c-9.8-8.6-17.3-12.6-29.3-17.3
		c-4.4-1.8-10-2-15.4-1.3c-0.1-0.1-0.2-0.1-0.3-0.2c-2.8-2.1-5.8-4-9-5.6c-2.2-4.4-2.4-11.3-6.1-14.7c-9.4-8.6-23.9-11.6-37-11.3
		c-11.9,0.2-22.3,3.5-31.8,8.7c-4.2-0.6-8.5-0.6-13.1,0.1c-9.9,1.3-21,5.5-27.8,13.3c-10.8,12.4-20.8,25.7-29,39.9
		c-3.4-8-8.1-15.4-14.9-21.9c-11.4-11-25.7-16.8-41-18.6c-0.9-1.1-1.8-2.1-2.9-3c-2.8-2.2-5.6-4.3-8.4-6.5
		c-6.2-3.6-12.8-5.4-19.9-5.6c-10.8-9.1-24.4-15.2-38.7-14.7c-8.5,0.3-17.5,2-25.7,4.5c-4.1,1.2-8,2.7-11.8,4.4
		c-1.8,0-3.7,0-5.5,0.2c-10.8,1-17.7,2.6-27.6,7.4c-5.4,2.6-8.8,5.6-14,9.9c-3.6,3-6.8,6.5-10.2,9.9c-7.6,7.7-15.2,15.4-22.8,23.1
		l-44.9,45.5c-9.1,9.2-12.1,20.9-18.4,32.3c-11.6,21-19.4,42.4-7.7,63.6c11.5,20.9,35.7,31.1,58.6,31.6c12,0.3,23.8-2.7,35.7-4.8
		c0.5,0,1,0,1.5-0.1c0.5,0.2,1.1,0.4,1.6,0.6c1.2,6.4,3.2,12.7,5.8,18.7c0.9,6.7,3,13.1,6.2,17.9c6.4,9.7,12.8,19.5,19.3,29.2
		c5.7,8.6,13.2,15.8,22.5,19.9c1.9,4.2,3.7,8.4,5.8,12.5c4.7,9.5,11.1,18.3,18.2,26.1c3.7,4.1,8,7.4,12.5,10.6c1,2.4,3,2.6,4.2,4.8
		c5.4,9.2,10.4,21.9,21,20.5c18.9-2.5,26.8,0.2,44-2c11.3-1.5,22.5,0.1,32.6-4.6c0.6,0.1,1.2,0.2,1.9,0.3c6.4,4,13.4,3.1,20.6,2.2
		c22.4-2.7,45.4-0.4,67.9-0.3c7.3,0,14.9-2.2,21.4-6c3.5,0.6,7.1,1.1,10.8,1.5c8.8,1,17.5-0.7,26.3-1.2c0.7,0.4,1.3,1.3,2.2,1.3
		c16.3-0.4,28,2.6,43.6-0.9c11.1-2.5,24-5.7,29.3-15.7c1.6-3.9,3.3-7.7,4.9-11.6c2.3-8.6,2.3-17.2,0-25.8c-2.7-16-5.3-32-8-47.9
		c-2.8-17.1-7.3-30.5-17.3-46.6c2.4-0.2,1.2-0.6-0.7-1.8c4.1-6.6,5.6-14.1,5.2-21.4c-0.2-3.8-0.8-7.5-1.9-11
		c0.3-2.3,0.5-4.6,0.7-6.9c1.1-10.6,1.7-21.1,0.5-31.6c-0.7-5.9-1.3-11.9-2.6-17.7c6.8-0.3,13.6-2.1,18.9-5.5
		c8.9-5.7,16.7-14.2,19.1-24.8C794.4,601.3,792.9,590.8,787.6,580.5z"/>
	<polyline class="st5" points="409.5,511.1 409.6,816.1 447.4,861.7 449.7,551.9 409.5,511.1 409.6,518.8 409.6,518.8 	"/>
	<polyline class="st5" points="324.5,568.3 238,765.7 247.1,810.8 363.6,524.8 324.5,568.3 324.5,568.3 324.5,568.3 	"/>
	<polyline class="st5" points="736.6,590 894.1,680.6 895.7,659.1 697.9,546.1 736.6,590 736.6,590 736.6,590 	"/>
	<polyline class="st5" points="372.8,551 301.1,715.5 326.3,735.3 390,563.8 372.8,551 364.7,570.2 364.7,570.2 	"/>
	<polyline class="st5" points="503,590.9 503.1,886.8 527.9,886.4 530.3,570 503,590.9 503.1,598.5 503.1,598.5 	"/>
	<polyline class="st5" points="601.5,613.9 601.5,883.2 626.4,884.7 630.6,588.2 616.6,591.6 613.9,599.6 603.3,611.3 603.2,612.2 
		604.4,611.3 	"/>
	<polyline class="st5" points="701.2,545.9 701.3,879.9 726.1,880.5 730.4,526.6 701.2,545.9 701.3,553.6 701.3,553.6 	"/>
	<polyline class="st5" points="496.7,602.1 496.7,888.1 536.6,886.7 536.8,592.9 496.7,595.1 496.7,596.8 496.7,593.8 	"/>
	<polyline class="st5" points="592.9,637 593,886.9 630.8,885.5 631.1,591.7 592.9,637 593,636.7 593,636.7 	"/>
	<polyline class="st5" points="691.9,566.1 691.9,881.1 729.7,879.7 730,548.9 691.9,561.1 691.9,593.8 691.9,593.8 	"/>
</g>
<g id="hat">
	<path class="st6" d="M739.5,288.4c-3.7-3.4-7.9-5.1-12.1-5.3c0.4-0.8,0.8-1.6,1.1-2.4c2.5-5.9,3.2-11.1,3.1-16.8l1.2-1.6
		c4.7-8.1,6.2-17.3,4.9-26.5c-1-7.5-3.6-13.7-8.2-19.6c-3.6-4.7-8.9-9.7-14.7-12.6c-0.8-2.2-1.6-4.5-2.6-6.7
		c-5-12.1-9.7-20.7-18.6-30.6c-9.3-10.3-21.5-18.3-33-26c-23.7-15.9-50.4-22.9-78-28.3c-29.7-5.8-61.1-10.6-90.7-1.6
		c-27.3,8.4-50.3,26.3-68.8,47.7C403.4,181,386.1,206,373,233.3c-2.4,5-4.4,10.3-5.3,15.8c-0.1,0-0.1,0-0.2,0.1
		c-6,2-11.9,5.7-14.9,11.5c-2.9,5.5-3.5,10.6-2.9,16.5c0,0.1,0,0.8,0,2.1c0,0.8-0.2,2.2-0.3,3.2c-0.4,1.5-0.8,2.9-1.3,4.3
		c-3,8.2,0.5,18.4,6.4,24.3c4.1,4.1,9.3,6.4,14.8,7c-1.2,9.8-2,19.5-2.4,29.4c-0.4,9.9,9,19.4,19,19c10.7-0.5,18.5-8.3,19-19
		c0.3-7,0.8-14.1,1.5-21.1c0.3-3.2,0.7-6.4,1.1-9.5c0.1-0.5,0.1-0.8,0.1-1.1c0.1-0.3,0.1-0.8,0.2-1.4c0.2-1.1,0.4-2.3,0.5-3.4
		c2.7-4.4,4.3-9.6,4.4-14.9c2.7,3.5,6.9,5.9,11.6,5.9c67.5,0,135.4-1.8,202.7,4.7c2,1.8,4.4,3.1,7.3,3.7c9.6,2.1,19.3,3.8,29.1,5.2
		c-0.6,2.1-1.2,4.1-1.8,6.2c-1.6,5.6-0.1,11.9,3.3,16.6c1,9.6,2.9,19.2,5.7,28.4c2.2,7.3,8.2,12.6,15.8,13.6
		c7.1,0.9,15.6-2.3,18.9-9.1c7.3-14.6,18.5-31.3,16.4-48.3c6.7-0.4,12.4-3.2,17.8-7.6C747.2,309,746.5,294.9,739.5,288.4z"/>
</g>
<g id="_x32_x4">
	<path class="st7" d="M1125.7,202.7l-33.6,0c-4.4,0-7.9,1.7-10.4,4.3c-1.9-1.2-4.1-1.9-6.4-2c-7-4.5-15.6-6.2-24.2-3.3
		c-38.2,12.9-76.3,25.8-114.5,38.7c-18.3,6.2-36.5,12.8-55,18.2c-18.8,5.5-38.2,8.4-57.2,12.9c-21,5-41.7,11.2-62.1,18.5
		c-12.7,4.5-23.8,15.9-23.1,30.4c0.1,1.8,0.3,3.5,0.6,5.2c-0.7,0.5-1.3,0.9-1.9,1.4c-4.3,0.4-8.4,2.9-10.8,6.8
		c-7.2,11.8-14.5,23.6-21.7,35.5c-2.9,4.8-5.4,6.9-9.6,11.2c-6.4,6.6-8.5,14.2-7.2,23.2c0.1,1,0.4,1.9,0.8,2.7
		c-0.3,3.2-0.2,6.4,0.4,9.5c-1.6,3.1-2,6.8-1.4,10.5c0.7,4.8-1,11.3-2.6,17.6c-0.9,3.5-1.8,7-2.5,10.6c-2.4,1.1-4.6,2.9-6,5.4
		c-4.1,7.3-10.4,12.8-17.3,18.5c-3.3,2.7-5.5,4.6-9.2,6.8c-2,1.2-1.9,1.1-4.1,1.8c-0.3,0.1-0.5,0.2-0.6,0.2c-0.1,0-0.1,0-0.2,0
		c-0.4,0-0.5,0.1-0.6,0.2c-0.2-0.1-0.6-0.2-1.1-0.3c-7.3-1.8-15.2,2.3-17.2,9.8c-2,7.1,2.4,15.4,9.8,17.2c6.5,1.6,12.5,1.2,18.2-0.6
		c4.1,5.2,12.5,7.7,18.2,3.7c4.4-3.1,5.9-1.9,11.6-2.7c5.2-0.7,9.1-3.4,11.7-7.2c4.2,6.3,10.4,11.2,17.7,12.8
		c23.5,5.2,46.7,4.1,69-2.6c11.8,4.5,26.9,2.5,35.2-7.5c5.5-6.6,9.2-13.4,9.2-22.3c0-2.1-0.3-4.3-0.7-6.4c0.9-1.8,1.5-3.5,2-5.2
		c0.6-2.3,1-4.7,1-7.3c1.5-0.9,3-1.8,4.5-2.7c5.1-3.3,10.1-6.5,15.4-9.4c5.4,1.7,11.2,1.9,17.2,0.2l8.3-2.5
		c4.9-1.5,9.6-4.2,13.4-7.9c5.9-0.4,11.8-0.8,17.6-1.6c-2.6,3.9-4.4,8.2-4.6,13c-0.3,8,4.3,15.2,11.6,18.3c0.2,0.1,0.4,0.1,0.6,0.2
		c-0.6,2.2-0.6,4.7,0.1,7.2c2.2,8.1,10.5,12.4,18.5,10.5c56-13.4,112.1-26.4,167.7-41.1c4.3-1.1,7.7-4.2,9.5-8.1
		c0.1,0,0.1-0.1,0.2-0.1c0.9,0.2,1.8,0.3,2.7,0.5c7.6,1.7,16.6-2.3,18.5-10.5c1-4.2,0.1-8.9-2.2-12.5c0.3-0.7,0.5-1.4,0.8-2.1
		c4.8-13.7,5.1-29.5,6.4-43.8c1.5-16.3,2.6-32.6,3.3-48.9c1.6-36.6,1.6-73.3,1.6-110C1140.7,209.6,1133.9,202.6,1125.7,202.7z
		 M1002.3,397.3c1.3-2.9,2.6-5.7,3.9-8.6c-0.3,2.5,0,5,0.8,7.3C1005.4,396.4,1003.9,396.8,1002.3,397.3z"/>
	<text transform="matrix(1 0 0 1 1103.1448 222.3907)" class="st8 st9">aaa</text>
	<text transform="matrix(1 0 0 1 807.5275 893.0158)" class="st8 st10 st11">aaa</text>
	<text transform="matrix(1 0 0 1 807.5271 962.8763)" class="st8 st12 st13">construction</text>
	<text transform="matrix(1 0 0 1 807.5272 1042.5383)" class="st14 st12 st13">&amp;</text>
	<text transform="matrix(1 0 0 1 807.527 1117.4536)" class="st8 st12 st13">remodeling</text>
	<text transform="matrix(1 0 0 1 807.5278 1188.7554)" class="st8 st12 st13">llc</text>
</g>
<g id="skin">
	<path class="st15" d="M359.4,744.9c-0.9-0.6-1.5-5.5-2.2-7.5c-0.3-0.9-0.7-1.7-1.1-2.5c1.1-1.5,1.7-3.3,1.9-5.3
		c0.2-3.6,0.5-7.3,0.7-10.9c1.8-2.5,2.2-5.8-0.1-8.8c-3.2-4.3-6.8-7-11.6-8.1c-0.6-0.4-1.2-0.8-1.8-1.1c-1-1.8-2.8-3.2-5.3-3.9
		l-29.3-7.9c-1.3-0.4-2.6-0.4-3.7-0.3c-2.2-0.7-4.5-1.2-6.7-1.6c-14.4-2.2-28.7-0.3-43,1.8c-4.5,0.6-6.5,4.5-6.4,8.4
		c-2.5,3.4-3.6,7.7-2.5,12.5c-1,2.8-1.3,6-1.8,9.3c-1.9,13.1-3.8,26.2-5.7,39.3c-0.9,6-1.9,12.1-1.3,18.2c0.6,6.5,3.4,12.4,3.4,19
		c0.2,13.9-0.5,27.9-0.8,41.8c-0.1,2.9,1,5.1,2.7,6.5c0.2,0.5,0.5,1.1,0.9,1.6c6.7,8.9,16.8,14.1,23.5,23.2
		c4.2,5.7,12.5,0.9,9.5-5.6c-5.1-11.1-8.6-22.8-10.5-34.8c0-0.2-0.1-0.4-0.2-0.6c1.6-1,2.8-3,2.7-4.8c0-0.8-0.1-1.7-0.1-2.5
		c1.4,0.6,2.9,1.1,3.9,2c1.4,1.4,2.1,3.9,3.2,5.5c2.5,3.4,5.8,5.6,9.7,6.9c0.7,1.5,2,3,3.2,4.2c4.6,4.9,9.3,9.8,13.9,14.7
		c2.8,3,7.3-0.8,5.5-4.2c-0.6-1.2-1.3-2.3-2-3.5c0.3-2.4,0-4.7-1.5-6.7c-0.8-1.1-1.9-1.9-3-2.6c-0.2-0.3-0.3-0.5-0.6-0.8
		c-3.1-3-4.9-6.2-5.8-10.5c-0.6-2.5-3-3-4.9-2.1c-7.4-8.8-14.8-17.6-22.3-26.2c-0.2-0.2-0.4-0.4-0.7-0.6c0.1-2.6-0.3-5.1-1.1-7.7
		c-1.5-5.2-2.6-9.8-2.9-15.2c-0.1-2-0.2-3.9-0.3-5.9c2.2-0.9,3.9-2.9,3.7-5.8c-0.1-0.6-0.1-1.2-0.1-1.8c4.1-3.6,7.5-7.7,11.3-11.7
		c2.9-3.2,6.2-5.8,9.8-7.9c1.2,0.5,2.5,0.9,3.9,1c6.8,0.5,13.8-3.4,20.4-4.9c3.7-0.9,7.4-1.4,11.1-1.3c0.5,0,1,0,1.5,0.1
		c2.6,0.2,5.3,0.7,7.9,1.7c2.7,1,5.5,2,8.3,3c2.5,1,2.4,1.4,3.1,4.1c1.3,5,2.8,9.2,7.3,12C359.9,760.6,366.5,749.3,359.4,744.9z"/>
	<path class="st15" d="M1009,577.3c-0.3-23.8-3.1-47.6-8.1-70.9c0.3-8.5-0.5-16.8-4.5-24.7c-1.5-3-4.2-3.7-6.7-3
		c-3-1.2-6.8-0.4-8.2,2.5c-9.1-2.6-19.4-0.1-26.2,6.9c-1.5,1.6-2,3.4-1.8,5.1c-0.6,0-1.2,0-1.9,0.1c-9,1.4-17.9,3.4-26.6,6.2
		c-1.2,0.4-2.4,1.2-3.3,2.2c-0.5,0.3-0.9,0.8-1.4,1.3c-5.4,6.9-10.4,13.7-13.9,21.4c-2.3-0.6-4.9,0-6.6,2.4
		c-0.1-0.1-0.2-0.3-0.3-0.4c3.6-5,6.7-10.4,6.5-16.8c-0.4-11-1.3-22.1-2.4-33c-0.8-8.4-3.5-17.2-12.6-20c-9.1-2.8-18.5,2.8-26.5,6.4
		c-7.7,3.4-18.7,6.3-23,14.3c-4.2,7.8-2.2,18.4-0.5,26.6c1.8,8.6,4.8,17.1,7.5,25.6c0.5,3,1.4,6,2.7,8.9c1.3,4.7,2.3,9.5,2.8,14.4
		c0,1.9,0,3.8,0,5.7c-1.4,1.8-2.7,3.7-3.8,5.7c-2-4.9-9.9-5.7-12.2,0.7c-0.6,1.7-1.4,3.3-2.2,4.9c-9.3,4.2-16.5,10.8-21.4,19.6
		c-2.7,1.4-5.3,3.1-7.8,5c-0.4-2.1-1.7-4.1-4.2-5.1l-11.2-4.4c-2.2-0.9-4.7,0.2-6.3,1.7c-2.3,2-4.3,4.2-6.2,6.5
		c-2.3,1-4.5,2.3-6.6,4c-9.3,7.5-12.8,21.1-19.2,31c-7.9,12.2-3.8,26.4-1.3,40.3c2.5,14.1,4.9,28.3,7.6,42.4c1,5.4-5.4,10.3,7,14.6
		c3.7,1.3,7.1,3.7,10.9,3.2c1.2,0.8,2.6,1.3,3.9,1.4c6.4,0.5,12.8,0.3,19.1-0.5c4.9-0.7,12.1-1,15.6-5c0.7-0.8,1.3-1.8,1.7-2.8
		c10.8,0.4,19.6-5.4,28.2-11.8c8.1-6.1,15.7-12.9,22.7-20.2c6.2-3.8,11.7-8.5,16.6-13.8c0.3-0.3,0.7-0.7,0.9-1c3.7-4.3,7-9,9.8-14
		c1.3-2.4,1-4.9-0.3-6.8c0.9-1.1,1.6-2.3,2.5-3.5c1.4-2,2.9-4,4.5-5.8c2.8,0.7,4.5-2.2,7.5-2.9c2.7-0.6,5.8-2.5,7.7-3.5
		c2.6-1.5,4.9-3.7,5.8-6.6c1.1-3.3,0.3-7.1-1.8-9.7c3.8,0.5,7.6,0.8,11.4,0.8c5.4,0,11.5-0.2,15-5c0,0,0,0,0,0
		c8.9,0.8,21.3-1.4,23.6-10.4c1.1,0.6,2.4,1,3.9,1.1c3.4,0.3,6.3-1.2,8.7-3.4c3,1.9,7.7,1.6,9.3-2c1.2-2.9,2.2-5.8,3-8.7
		c1.6-1.8,3.6-3.7,4.1-4.5c1.3-1.9,2.2-3.9,2.8-6C1006.3,583.4,1009.1,581.3,1009,577.3z M771.4,705.2c-0.1-0.3-0.1-0.6-0.2-0.9
		c0.2,0,0.3,0.1,0.5,0.1c0.1,1.7,0.2,3.4,0.4,5C771.8,708,771.6,706.5,771.4,705.2z M894.9,571.3c-1.6,7.4-5.5,17.4-4.1,25.6
		c-1.5-0.1-3.1,0.1-4.5,0.6c0.3-14.6,5.3-28.2,11.9-41.2C897,561.2,896,566.3,894.9,571.3z M909.1,611.8c-4-1.6-8.2-2.7-12.5-3.3
		c0.4-0.4,0.8-0.9,1-1.4c2.9,1.7,6.4,2.6,9.6,3.6c0.7,0.2,1.3,0.4,2,0.6C909.2,611.5,909.2,611.7,909.1,611.8z M946.7,508.1
		c-0.2-0.2-0.4-0.4-0.7-0.6c0.4-0.1,0.7-0.1,1.1-0.2c0,0.4,0,0.9,0,1.3C947,508.4,946.8,508.3,946.7,508.1z M960,597.2
		c0.3-3.3,0.8-6.6,1.5-9.9C961,590.6,960.5,593.9,960,597.2z"/>
	<path class="st15" d="M681.1,382.1c-0.2,0-0.4-0.1-0.5-0.1c-0.5-0.4-0.9-0.8-1.5-1.2c-2.3-1.5-4.9-2.5-7.5-3
		c-0.4-2.6-1.5-5.6-2.5-7.8c0-0.7-0.1-1.4-0.2-2.1c-1.4-7.2-3.6-14.2-6.5-20.9c0.7-1.7,0.9-3.7,0.4-5.7l-2.9-12.6
		c-0.1-0.6-0.3-1.2-0.6-1.8c0.7-1.4,1-3.1,1-4.7c2.7-5.6,0-14-8.2-14c-2.8,0-5,1-6.5,2.6c-6.2-3.1-14.6-1.6-21.2-1
		c-1.4,0.1-2.6,0.4-3.7,0.8c-10.3-2-20.8-3.2-31.4-3.6c-1.1,0-2.1,0.1-3,0.3c-2.3-0.6-4.8-0.5-7.3-0.1c-0.4,0.1-0.8,0.2-1.2,0.3
		c-3.6-0.4-7.2-0.5-10.8-0.5c-1.8-0.5-3.6-0.9-5.4-1.3c-7.8-1.5-15.4-1.6-23.2-0.4c-0.9-0.3-1.9-0.5-2.9-0.6c-0.9-0.1-1.7,0-2.5,0.1
		c-23.8-3.3-47.9,0.8-71.6-2.6c-2.7-0.4-5.4,0-7.6,1.2c-6.2-0.2-12.4-0.4-18.5-0.7c-0.7-0.2-1.5-0.3-2.3-0.3c-2.3,0-4.6-0.1-7-0.1
		c-1.1-1.1-2.7-1.9-4.5-1.9c-2.3,0-4.6,1.4-5.8,3.4c-1.9,0.7-3.5,2.2-3.8,4.2c-0.1,0.6-0.2,1.2-0.2,1.7h0c0,0,0,0,0,0
		c-0.2,1.8-0.3,3.5-0.2,5.2c0,1.3-0.1,2.7-0.1,4c0,1.4,0.4,2.6,1.2,3.7c-2.1,10.2-3.8,20.5-5.3,30.9c-4.3,5.6-6.7,11.7-6.5,18.9
		c0,1.2,0.3,2.1,0.7,3c-2.2,12.8-2.7,25.8-2.5,38.8c0.2,14.2-2.2,36.9,13.3,44.6c0.3,0.2,0.6,0.3,1,0.4c2.2,3.7,5.2,6.9,9,9.4
		c0.2,4.6,3.5,8.6,8.1,10.1c7.9,2.8,16.1,3.7,24.3,3.8c-2.5,0.7-4.7,2.7-5,5.9c-0.3,3.2,0.2,6.2,1.3,9c-1.6,2.5-1.8,5.8,0.7,8.1
		c4.7,4.3,10.8,3.2,16.7,3.3c7,0.1,14,0.6,20.9,1.4c4.2,0.5,8.5,1.5,12.7,2.2c-1.4,3.2-0.4,7.7,3.8,9.3c10.7,4.1,21.4,8.4,32,12.8
		c-0.2,2.1,0.7,4.3,3.2,5.6c7.5,4,15.3,8,18.8,16.2c3.8,8.7,5.7,18.5,8.4,27.5c1.9,6.5,10.4,5.9,12.5,0c2.5-6.7,5.5-13.2,8.9-19.4
		c3.6-1.9,4.7-7,4.8-11.8c1.5-3,3.5-5.6,6-7.5c0.9-0.4,1.7-0.9,2.3-1.5c1-0.6,2-1.1,3.1-1.5c3.1-1.1,4.8-4.4,4.6-7.4
		c4.7-1.2,9.5-1.9,14.4-2.1c2.9-0.1,4.8-1.5,5.7-3.4c2.9,0.1,4.7,0.4,7.8,1.4c3.3,1,7.2-1.2,8-4.5c0.8-3.5-1.1-6.9-4.5-8
		c-3.8-1.1-7.7-1.7-11.6-1.8c-0.4,0-0.8,0-1.2,0.1c-0.4-0.9-1-1.8-1.7-2.5c0.7-0.3,1.3-0.7,1.9-1.2c2.4-2.4,2.3-5.5,0.8-8.1
		c3.3-2.5,3.7-7.3,1.3-10.5c-0.4-0.5-0.9-1-1.4-1.4c6-1.5,11.7-4.4,16.8-7.8c3.6-2.4,7.1-4.9,10.5-7.6c0.3,0,0.6,0,0.9,0
		c6.6-0.1,10.6-5.4,14.7-9.8c2.3-2.4,3.4-5.8,3.1-9c0.2-0.4,0.4-0.9,0.5-1.4c9.3-13.8,14-30.9,8.2-47.1c0.1-0.4,0.3-0.9,0.4-1.4
		c0.7-3.5,1-7.3,0.8-10.9c0.9-1,1.6-2.3,2-3.8C688.8,389.3,686.3,383,681.1,382.1z M452,327.7c-0.4,0.5-0.8,1-1.2,1.5
		c-0.1,0.1-0.1,0.2-0.2,0.3c-0.1-1.3-0.3-2.5-0.5-3.8c0-0.1,0-0.2-0.1-0.3c1,0.1,1.9,0.1,2.9,0.2C452.5,326.2,452.2,326.9,452,327.7
		z M460.5,483.4c-0.5-0.4-1.2-0.7-1.8-0.8c3.4-0.1,6.8-0.3,10.2-0.6c0.3,0.1,0.5,0.1,0.8,0.2C466.6,482.5,463.5,482.9,460.5,483.4z
		 M486.6,403.5c0-0.3,0-0.6,0-0.9c0.3,0,0.6,0,0.9,0.1c0.2,0.2,0.4,0.5,0.7,0.7C487.6,403.4,487.1,403.5,486.6,403.5z M504.5,355.9
		c-2.8,2-5.5,4.2-7.8,6.6c-1.6,1.7-3.1,3.6-4.4,5.5c-0.8,1.1-1.1,1.4-1.1,1.5c-1.6-0.1-3,0.2-4.2,0.7c-4.7-3.4-9.3-6.9-14-10.3
		c-2.4-1.8-5.6-1.7-8.4-0.5c-1.7-1-3.5-1.6-5.4-1.9c1.9-1.2,3.6-2.7,4.8-4.6c3-4.6,4.8-10,5.8-15.5c1.4-0.8,2.9-1.6,4.5-2.5
		c4-2.4,5.8-6.4,6-10.5c3.4-0.3,6.9-0.7,10.3-1.1c3.3,0.1,6.7,0.1,10,0.1c-2.3,4.1-2,9.6,3.3,12.6c3.2,1.8,0.3,11.5,0.3,14.6
		C504,352.4,504.2,354.1,504.5,355.9z M551.5,344.9c0.4-0.2,0.8-0.3,1.2-0.5c2.5-1.3,4.7-2.9,6.9-4.7c1.1-0.9,2.7-3.1,3.7-3.6
		c1.3-0.7,5.2,0.1,7.1,0.2c3,0.2,5.9,0.5,8.8,1.3c9.9,2.8,10.2,11.1,10.2,20c0,2.6,0.9,4.7,2.3,6.2c-7.4,1-13.5,6.7-20.1,11.4
		c-1.5-0.3-3.1-0.4-4.8-0.1c-8.2,1.3-12.9-8.9-14.3-15.1C551.4,355.1,551.2,349.9,551.5,344.9z M578,487.4c-2.8-0.2-5.7-0.3-8.5-0.5
		c1.6-0.2,3.2-0.4,4.8-0.7c0.8-0.2,1.6-0.4,2.4-0.6C577,486.3,577.4,486.9,578,487.4z M516.4,451.5c0.1,0.9,0.2,1.9,0.3,2.8
		c-0.3-0.1-0.6-0.1-0.9-0.2C516,453.2,516.2,452.4,516.4,451.5z M559.9,512.5c-7.2,0-14.4,0.6-21.6,1c-0.4-0.2-0.8-0.5-1.1-0.7
		c-3-1.9-5.8-1-7.6,0.9c-5-0.2-9.5-1.2-14.2-2.6c0.4-0.3,0.7-0.7,1-1c7.1-0.3,14.2-0.6,21.3-0.7c1.3,0.5,2.8,0.6,4.3,0.4
		c15.3-2.2,30.4,4.5,45.7,2.7c1.8-0.2,3.5-1,4.7-2.1c7.7,0.4,15.4,1.1,22.9,2.4c-1.5,1.1-2.6,2.7-3.2,4.4
		C594.9,514.1,577.4,512.4,559.9,512.5z"/>
	<path d="M723,322.6c-2.3-2.9-6.8-5-10.5-3.6c-0.3,0.1-0.5,0.2-0.8,0.3c-7.3-1-13.6-5.9-20.9-6.1c-3.8-0.1-6.6,1.4-10.1,2.7
		c-0.2,0.1-0.4,0.1-0.7,0.2c-0.8-0.2-1.6-0.5-2.4-0.7c-3-10-19.6-7.1-19.4,3.7c0,2,0.4,3.9,1,5.6c2.6,12.6,6.3,24.8,11.1,36.7
		c-0.4,1.6-0.4,3.3,0,5c0.5,2.4,1.7,4.7,3.4,6.5c3.7,5.2,9.3,8.8,16.1,7.5c5.7-1.1,9.3-4.8,11.3-9.6c1.8-0.7,3.4-2.1,4.6-4.2
		c6.3-10.8,13-21.5,18.1-32.9C725.4,329.9,725.7,326,723,322.6z"/>
	<path d="M407.3,295.2c-1.6,0-2.8,0.6-3.6,1.5c-0.5-0.1-1.1-0.2-1.6-0.2c-9.1-0.6-18.2,0.9-26.6,4.3c-5,2.1-8.5,6.6-7,12.3
		c1.1,4,5.5,7.7,9.9,7.5c-0.8,11-1,21.9-0.5,32.9c0.2,3.3,1.7,7.1,5,8.6c6.3,2.9,13.5,1.9,17.5-4.2c3.3-5,4.3-12,5.1-17.9
		c0.7-5.4,0.5-11.1,1.8-16.4c1.5-6,4.7-10.8,4.7-17.2c0-1.3-0.2-2.5-0.7-3.5C413.2,299.9,411.8,295.2,407.3,295.2z"/>
</g>
<g id="Layer_1">
	<g>
		<path d="M432.8,493.2c-3.1-1.4-6.3-2.8-9.3-4.3c-10.6-5.3-19.8-11.9-27.7-21c-11.2-12.8-11-28.2-11.4-43.2
			c-0.4-12.5,1.5-25.2,2.9-37.7c0.5-4.7-0.5-7.5-4.9-9.4c-8.6-3.7-14.1-10.4-15.6-19.4c-1.5-9.3-1.8-18.8-1.8-28.2
			c0-4.9-0.5-7.9-6.1-9.3c-5.5-1.4-11.4-3.4-14.3-9c-1.4-2.8-1.7-6.1-2.4-9.3c-0.2-0.9,0.3-2.1-0.1-2.9c-3.1-8.8-1.8-17.9-0.4-26.6
			c1.4-9.1,3.8-15.3,14-15.4c5.1,0,6.2-3.6,6.5-7.8c1.2-19,7.5-36.8,15-53.9c4.4-10.1,12.2-18.8,19.1-27.7
			c8.1-10.5,17.1-20.2,27.6-28.5c13.8-10.8,28.7-19.6,44.4-27.3c12.9-6.3,26.8-8.5,40.4-12c6.8-1.8,14.1-2.2,21.2-2.4
			c17.4-0.6,34.8-0.7,52.2-1.2c9.9-0.2,18.8,3.4,27.7,7.3c10.6,4.6,21.6,8.8,31.7,14.4c14.4,8,29.3,15.5,40.6,28.2
			c4.3,4.9,10.5,8,15.4,12.4c11.7,10.6,20.6,23.4,27.2,37.7c4.5,9.8,9.3,19.5,12.8,29.6c4.9,14.4,6.5,29.5,6.2,44.7
			c-0.1,7.3,4.1,11.4,11.7,10.6c8.2-0.9,15.5-4.3,22.4-8.9c1.8-1.2,4.2-1.9,6.5-2.3c5.9-1.1,12.1-1.3,17.9-2.9
			c16.3-4.4,32.5-9,48.7-13.9c9.2-2.8,18.1-6.6,27.3-9.3c8.5-2.5,17.3-4.1,25.9-6.2c8.4-2,16.7-4.2,25.1-6.3
			c11.4-2.9,23-5.5,34.3-8.9c12.7-3.8,25.1-8.6,37.7-12.7c4.9-1.6,10-2.5,14.9-3.9c11.6-3.3,23.3-6.6,34.9-10.1
			c13.3-4,26.7-4.8,40.5-3.5c16.3,1.5,32.8,1.9,49.1,3.4c8.7,0.8,11.7,3.2,11.6,12c-0.1,29.5,0.4,59.1,0.2,88.6
			c-0.1,16.4-1,32.8-1.5,49.3c-0.3,10.6-0.1,21.3-1,31.9c-1,12.9-3.1,25.7-4.4,38.6c-1,10.2-1.2,20.6-2.2,30.8c-0.2,2.6-1.2,6-3,7.4
			c-5,3.6-9.3,7.8-16.4,8.6c-8.9,1-17.6,4.8-26.4,7c-10.3,2.5-20.7,4.5-31,6.8c-8.4,1.9-16.7,3.8-25.1,5.7c-8,1.9-16,3.8-24,5.6
			c-4,0.9-5,2.6-4.3,7.1c2.6,16.9,4.4,33.8,6.5,50.7c1.1,9.1,2.7,18.2,2.8,27.2c0,4.6-2.4,9.4-4.4,13.8c-1.6,3.6-4.8,6.5-6.2,10.2
			c-2.9,7.5-7.8,13.2-14.5,17.1c-15.1,8.7-30.5,16.8-48,19.8c-1.6,0.3-3.2,1.2-4.8,1.2c-6.2,0-9.7,1.9-11.1,9c-0.8,4.1-5,8.9-9,10.7
			c-12.6,5.7-21.3,15.4-29.8,25.6c-9,10.7-17.9,21.7-27.5,31.9c-12.8,13.6-27.9,23.7-46.6,27.6c-4.9,1-9.7,2.4-14.4,3.8
			c-8.9,2.8-17.8,3.3-26.9,0.5c-3.2-1-6.8-0.9-10.7-1.4c0.1,2.1,0.1,3.4,0.3,4.6c3.9,17.3,8.2,34.6,11.7,52
			c2.2,10.9,3.5,22,4.5,33.1c1.1,12.8,1.4,25.7,2.2,38.6c0.4,5.7-1.9,10-6.4,13.2c-2.4,1.7-2.8,3-1,5.6c4.3,6.1,3,13.4,3.3,20.3
			c0.4,8.1-0.1,16.3,0.2,24.4c0.3,9.1-1.5,16.6-11.5,19.3c-0.8,0.2-1.4,0.8-2.5,1.4c2.9,7.9,6.4,15.4,8.5,23.4
			c2.7,9.9,4.6,20,6.1,30.1c0.9,6.3,1.4,13,0.5,19.3c-1.8,12.7-4.2,25.4-7.2,37.9c-2.6,10.9-7.7,21.3-6.7,32.9
			c0.7,7.8,2.5,15.5,2.6,23.2c0.2,11.6-0.7,23.2-0.8,34.7c-0.1,10.8,0.2,21.5,0.6,32.3c0.4,10.2,2,20.5,1.6,30.7
			c-0.4,9.7,6.1,13.9,12.3,18.1c5.4,3.6,9.2,7.8,9.9,14.1c1.4,13.5,2.5,27.1,3.4,40.6c0.9,14.1,1.7,28.2,1.9,42.3
			c0.1,10.3-5.3,14.8-15.7,15c-11,0.3-22.1,1-33.1,1.5c-1.8,0.1-3.5,0-5.6,0c-0.6,8.2-0.7,16.3-1.8,24.3c-2.7,19-5.6,38.1-9,57
			c-0.6,3.1-3.4,6.2-6,8.4c-6.3,5.4-12.5,11.2-21.2,12.2c-5.6,0.7-11.2,1.3-16.8,1.1c-5-0.2-8.1-3.8-10.4-8.2
			c-5.5-10.5-11.8-20.7-17-31.4c-3.4-7-8.9-9.7-16-9.3c-10.7,0.6-16.3-8.4-18-17c-0.8-3.7-1.6-7.5-3-11c-1.7-4.3-3-10.5-6.3-11.9
			c-5.3-2.4-12.4-3.1-18-1.7c-10.1,2.5-16.9-2.2-24.2-7.2c-3.4-2.3-6.7-4.7-11.3-8c0,4,0,6.7,0,9.4c-0.2,6.9-3.9,10.3-10.8,10.7
			c-15.8,1-31.7,2.5-47.5,3.6c-9.1,0.7-18.2,0.9-27.3,1.7c-9.5,0.9-19,2.4-28.6,3.2c-6.9,0.6-13.9,0.8-20.8,1.1
			c-16.4,0.7-32.8,1.4-49.2,1.9c-7.6,0.2-15.2-0.4-22.8-0.6c-0.5,0-1.1-0.1-1.5,0c-11.7,4.2-17.6-3.9-24.2-11
			c-5.9-6.5-12-12.9-18.3-19c-6.7-6.4-13.8-12.4-20.5-18.7c-2.3-2.2-3-4.7-2.3-8.5c1.9-10.1,3.3-20.3,3.7-30.5
			c0.9-23.8,0.9-47.5,1.5-71.3c0.5-17.8,1.5-35.5,2.3-53.3c0.8-18.6,1.8-37.1,2.4-55.7c0.8-26.7,1.3-53.5,1.9-80.2
			c0.1-3.1-0.1-6.2-3.5-8.1c-1.5-0.9-2-3.3-3-5c-7.5-12.1-14.8-24.3-22.6-36.3c-7.2-11.1-12.8-22.5-10.8-36.2
			c0.7-4.7-1.3-6.2-5.7-6.3c-3.8-0.1-7.8-0.4-11.3-1.8c-6-2.4-10.6-5.8-11.1-13.6c-0.7-11.1-3.3-22-4.4-33c-1-10.5-1-21.2-1.5-31.8
			c-0.1-2.2,0.1-4.4-0.6-6.4c-4.1-12.9-1.3-25.2,2.8-37.6c3-9.1,3.9-18.5,0.5-28.1c-6.5-18.4-7.1-37.4-4.2-56.6
			c1-6.4,3.2-12.5,4.6-18.8c1.5-6.9,2.8-13.9,4.1-20.9c0.6-3.3,1.2-6.2,5-7.8c2-0.9,3.4-4,4.2-6.4c6.7-19.5,15.2-38.2,25.2-56.2
			c4.6-8.2,9.9-16.1,13.9-24.7c6.3-13.7,15.5-25.2,25.4-36.1c7.9-8.7,18.2-14.4,29.7-17.6c9.5-2.7,9.1-2.8,9.5-12.5
			c0.2-5.7,1.4-11.6,3.2-17.1c0.8-2.3,3.9-4.9,6.4-5.6c15-3.7,30-7.1,45.1-10c8.4-1.6,17-1.9,25.5-2.8
			C432.5,494.3,432.7,493.7,432.8,493.2z M911.8,617.3c-3.6-0.7-7.2-1.3-10.7-2.2c-11.6-2.8-17.1-11.6-15.5-23.5
			c2.3-16.5,7.8-32,14-47.3c1.9-4.8,3-9.9,4.5-14.8c-1.8,0.1-2.6,0.6-3.2,1.4c-9.6,13.4-19.5,26.6-28.6,40.2
			c-4.3,6.4-8.6,13-9.4,21.2c-0.8,8.4,4.3,16.9,12.6,18.8c9.4,2.1,18.7,4.3,28.1,6.2c2.6,0.5,5.5-0.1,8.3-0.2
			c1.4,0.6,2.8,1.4,4.3,1.9c10.4,3.5,20.4-0.7,30.3-2.5c14.3-2.6,27.7-8.1,39.9-16.4c5.2-3.6,9.3-7.8,11.8-13.6
			c1.1-2.6,3.1-4.8,4.2-7.4c1.2-2.9,2-6.1,2.4-9.2c0.3-2.1-0.4-4.3-0.6-6.4c-2.3-21.6-4.6-43.3-7-64.9c-0.5-4.6-1.6-9.2-2.7-13.7
			c-0.2-1-1.5-1.8-2.3-2.7c-0.5,1-1.4,2.1-1.3,3.1c0.6,7.5,1,15,2.3,22.3c4.5,25.8,3.5,51-7.8,75.2c-3.4,7.2-7.5,13.5-14.1,18.3
			c-14.1,10.3-30.3,14.1-47.1,15.9C920,617.6,915.9,617.3,911.8,617.3z M570.5,555.3c1.3,0.4,2.6,0.9,5.3,1.8
			c-3.6,2.7-6,4.5-8.6,6.5c1,2.2,1.9,4.2,3.1,6.9c1.4-2.7,1.9-4.8,3.3-6.1c1-0.9,4.1-1.2,4.5-0.6c0.9,1.3,1.6,4.4,0.9,5
			c-2.2,1.7-5.1,2.6-7.7,3.9c1.2,4,2.5,8.2,3.7,12.3c1.3-1.3,2.3-3,1.8-3.7c-2.2-3.6-0.7-4.4,2.5-6.4c2.3-1.5,2.9-6,3.6-9.2
			c0.4-1.9-0.5-4.1-0.9-6.2c1.9,0.1,3.8,0.2,6.4,0.3c1.6-3.5,3.9-7.3,4.9-11.4c1.5-6.1,4-10.8,10.8-12.3c-0.8-2-1.3-3.5-2.1-5.5
			c-1.1,1.4-1.7,2.5-2.6,3c-1.2,0.6-2.6,0.7-3.9,1c0.3-1.3,0.1-3,0.9-3.8c2.8-2.9,5.9-5.5,9.9-9.1c0.7,3.7,1.1,5.9,1.4,8.1
			c0.4,2.9,1.5,4.7,4.9,3.6c4.9-1.6,9.8-3.2,15.4-5c-5.6-4.6-5.6-4.6-3.9-10.2c-39.3-0.9-78.3-1.8-118.3-2.8
			c6.5,3.8,12,7.1,17.1,10.1c1.9-2.2,4.2-5.7,4.9-5.4c2.7,1.2,5,3.5,7.8,5.7c-2.3,1.5-3.8,2.5-5.8,3.9c4.4,2.7,8.5,5.3,12.6,7.8
			l-0.1-0.1c2.6,2,5.3,4,7.9,6c3.9-5.7,5.9-6,9.5-1.6c-1.9,1.3-3.7,2.7-5.3,3.8c3.8,4.3,7.4,8.5,11.1,12.8c1.6-1.1,3.3-2.1,4.9-3.2
			L570.5,555.3z M527.3,584.3c-2.9,1.9-5.1,3.3-7.3,4.8c-9.5,6.5-18.9,12.9-28.4,19.4c-3.7,2.6-6.6,1.8-9.7-1.3
			c-5.7-5.8-11.8-11.2-17.6-16.9c-11.2-10.8-20.5-23.1-28.9-36c-7.3-11.3-14.3-22.8-21.6-34.1c-0.6-1-2.8-1.7-4.1-1.5
			c-7.6,1.1-15.1,2.3-22.6,3.8c-4.6,0.9-9.1,2.1-13.5,3.5c-4.9,1.5-8.2,7.8-6.8,13c1.2,4.2,5.2,2.2,8,2.9c5.3,1.4,10.6,3.1,14.3,4.3
			c0.2,3.3-0.1,5.4,0.6,7c4.3,9.6,8.4,19.2,6.5,30.2c-1.9,11.1-3,22.5-5.4,33.5c-5.2,23.7-11.1,47.2-16.8,70.8
			c-2.7,11.5-6.3,22.8-7.9,34.4c-2.7,20.2,5.8,38,14.2,55.5c1.6,3.4,4.1,6.4,6.7,9.2c10.4,11.2,21.6,21.7,31.3,33.4
			c13.5,16.4,25.9,33.8,38.7,50.8c3.5,4.7,5.9,11.6,10.6,13.8c5.2,2.5,12.4,1.4,18.7,1c22.9-1.5,45.8-4,68.7-5
			c24.9-1.1,49.9-0.9,74.9-1.4c24.9-0.5,49.9-0.1,74.7-1.8c20.9-1.4,42.2,0.7,62.5-6.5c3.1-1.1,4-2.5,4-5.2c0-2.2-0.2-4.3-0.2-6.5
			c0.1-7.5,1.6-15.2,0.3-22.4c-6-33.8-12.8-67.5-19.3-101.2c-0.8-4.1-2.3-8.4,1.4-12.3c0.8-0.8,0.5-2.9,0.3-4.3
			c-2.1-13.3-4-26.7-6.3-40c-4.5-25.7-9-51.4-13.8-77.1c-2.6-14-5.7-28-8.9-41.9c-1.6-7-4-13.8-6.2-21.3c-0.9,1.2-1.4,1.9-1.8,2.5
			c-10.4,14.6-19.3,30.5-34.1,41.3c-11.4,8.3-23.4,15.8-35.2,23.5c-3.3,2.1-6.9,2.1-10.3-0.4c-3.9-2.8-7.9-5.4-11.6-8.5
			c-2.2-1.8-4-4.2-6.2-6.5c-0.7,1.1-1.1,1.5-1.3,2c-3.9,16.5-11.8,31.3-19.7,46.1c-6.8,12.6-15.9,19.1-30.4,16.6
			c-0.3-0.1-0.7,0-1-0.1c-7.3-1.3-15.4-1.3-16.2-11.7c0-0.5-0.5-0.9-0.7-1.3c-3.9-8.4-8.2-16.7-11.6-25.3
			C534.4,606.8,531.1,595.8,527.3,584.3z M677.9,467.4c-6.5,5.2-13.1,9.7-18.6,15.2c-5.1,5-10.8,7.6-17.5,8.5
			c-2.4,0.3-4.9,0.3-7.8,0.5c0.2,2.3,0.3,4.3,0.4,6.6c0.1,0.4-0.1-0.4,0,0c0,0.1,0,0,0.1,0.6c0,0.9-0.2,2.5-0.2,2.5
			c-0.2,3.3-2.1,6.2,0.3,9.3c1.3,1.6,5.7,2.4,7.7,1.4c7-3.3,13.7-7.2,20.3-11.3c9.8-6.2,18.9-13.8,29.2-18.8
			c8-3.9,17.5-4.8,26.5-6.7c1.9-0.4,4.3,0.3,6.3,1c3.7,1.5,7.1,3.7,10.9,5c7.2,2.5,14,7.5,22.3,5.1c11-3.1,22.2-5.8,32.8-9.8
			c14.6-5.6,28.8-12.8,44.6-13.9c12.5-0.8,22.3-7.8,33.1-12.4c9.5-4,19-7,29.3-6.9c7.4,0.1,12,5.5,12.6,13.1
			c0.4,5.2,1.7,10.4,2.7,15.9c2.2-0.4,4-0.6,5.8-1c20-4.3,40-8.6,59.9-13c26.8-5.9,53.5-12,80.3-17.6c4.6-1,5.4-3,5.4-7.1
			c0.1-19.1,0.3-38.3,0.7-57.4c0.3-16.3,1.1-32.6,1.6-48.9c0.8-24.5,1.8-48.9,2.4-73.4c0.3-13,0.1-25.9,0.1-38.9c0-2.3,0-4.6,0-7.5
			c-2.2,0.5-3.9,0.8-5.6,1.3c-13.3,3.4-26.7,6.8-40,10.4c-9.1,2.5-18.1,5.2-27.1,8.2c-9.9,3.3-19.6,7.3-29.6,10.3
			c-14.8,4.4-29.8,8-44.7,12c-6.4,1.7-12.7,3.8-19.2,5.4c-8.4,2.1-17,3.8-25.4,5.9c-4.7,1.2-9.2,3.3-13.9,4.6
			c-19.8,5.6-39.6,11.1-59.4,16.7c-6.1,1.7-12.2,3.3-18.3,5c0,0.7,0.1,1.4,0.1,2.1c13.1,2.6,26.1,5.5,39.2,7.8
			c5,0.9,10.4,1.4,15.4,0.7c12.8-1.9,25.6-4.3,38.2-7c4.6-1,9-3,13.3-5c7.5-3.6,14.5-8.2,22.1-11.3c13-5.4,25-12.2,36.6-20
			c11.8-7.9,24.9-12.1,38.6-15.3c10.7-2.5,20.8,0.2,30.9,3c5.4,1.5,10.9,2.8,16.5,3.5c5.5,0.7,11.2,0.4,16.8,1.2
			c1.4,0.2,2.5,2.6,3.7,4c-1.3,0.7-2.5,2-3.8,1.9c-12.4-0.3-24.7-1.7-36.6-5.3c-8.8-2.6-17.7-4.7-27-1.8c-5.7,1.8-11.7,2.9-17.1,5.2
			c-6.4,2.8-12.5,6.6-18.6,10.1c-9.1,5.1-18,10.5-27.2,15.4c-6.4,3.4-13.8,5.3-19.8,9.2c-14.9,9.7-31.9,13.1-48.8,16.3
			c-22.5,4.3-44.6,1.3-66.2-6.5c-10.7-3.9-21.8-4.5-32.6,0.5c-2,0.9-4,1.8-6.1,2.1c-4.9,0.6-6.2,3.7-6.5,7.9c-0.1,1.5-0.2,3-0.3,4.5
			c-0.4,9.4-7.5,14.3-13.5,19.8c-0.7,0.7-2.3,0.3-3.3,0.8c-1.2,0.6-3.1,1.6-3.3,2.6c-1.6,10.7-7,19.7-12.4,28.7
			c-5.3,8.8-11.3,17.2-21.5,21.1c-1.2,0.5-2.6,2.3-2.6,3.6c-0.2,10.4-0.1,20.9-0.1,30.9c2.3,0.6,4.5,0.7,6.4,1.7
			c7.1,3.6,14.3,7.6,22.4,7.1c10.9-0.8,21.7-2.6,32.5-4c18.7-2.4,36-9.5,52.8-17.4c15.4-7.3,30-16.5,45.3-24.1
			c5.5-2.7,12-4.6,18.1-4.7c20.2-0.6,38.4,7.7,56.3,15.3c11,4.6,21.7,8.9,33.7,9.4c18.4,0.7,35.2-2.8,50.1-15.4
			c12.5-10.7,26.7-19.3,40.2-28.7c1.5-1.1,3.7-1.1,5.6-1.6c0.3,0.7,0.7,1.4,1,2c-2.1,1.9-4.2,3.9-6.4,5.6
			c-12.2,9.2-25.1,17.6-36.5,27.7c-20.7,18.1-44.1,20.8-69.6,14.9c-5.6-1.3-11.3-3-16.5-5.5c-13.8-6.8-28-12.1-43-15.4
			c-12.5-2.8-24.1-1-35.6,5.3c-19.1,10.4-38.4,20.4-58.2,29.4c-17.4,7.8-36.2,10.9-55.2,12.7c-9.8,0.9-19.7,1.5-29.1-2.1
			c-4.7-1.8-9.3-3.9-14-5.9c-1.4,9.1-2.8,18.1-4.4,28c1.9,0.8,4.5,2.6,7.2,3.1c5.1,0.8,10.3,1,15.4,1c28.8,0.1,55.6-9.5,82.7-17.4
			c18.6-5.4,36.6-13,55.2-18.8c15.1-4.7,30.5-5,45.7,0c3.9,1.3,7.7,2.8,9.6,8.5c-3.5-0.7-6-1.1-8.4-1.8c-10.1-3.1-20.3-6.1-30.9-3.5
			c-11.1,2.7-22.2,5.6-32.9,9.3c-19,6.5-37.5,14.9-56.8,20.4c-18.8,5.3-38.4,7.8-57.7,11.6c-10.4,2.1-20.1,1-29.1-5.2
			c-0.7-0.5-3.6,0.5-4,1.4 M462.1,1179.7c2-1.1,2.6-1.3,3.1-1.7c5.2-4,5.7-4.1,9.9,1.1c2.7,3.4,5.5,6.7,7.7,10.4
			c2.6,4.4,4.9,5.3,9.2,1.8c2-1.7,5.6-4.2,8,0.2c7.4,13.4,15,26.7,21.9,40.3c2.3,4.6,4.7,7,10.1,6.5c2.2-0.2,5.6,1.1,6.7,2.8
			c8.9,14.6,17.6,29.4,25.9,44.4c2.3,4.2,4.6,6.2,9.3,4.8c1.6-0.5,3.3-0.6,4.9-0.9c2.8-0.5,4.5,0.5,5.9,3.2
			c6.7,13.4,13.6,26.7,20.4,40c5.1,10,5.7,10.2,16.7,8.5c1.5-0.2,3.8-0.1,4.6,0.8c2.6,3.1,5.2,6.4,6.9,10.1
			c3.9,8.4,7.2,17.1,10.7,25.7c4.5,11,1.8,11.6,14.8,11.8c5.4,0.1,9.7,2.8,12.6,7.7c5.1,8.8,10.2,17.5,15.4,26.2
			c2.1,3.6,4.6,6.9,7.3,10.8c1.8-9.3,3.9-17.7,4.9-26.3c2.6-22.8,7.2-45.5,4.9-68.6c-0.5-5.2-1.7-10.7-4.2-15.1
			c-6.7-12-13.6-23.9-22.5-34.6c-12.8-15.5-24.2-32.1-36.6-48c-15.8-20.4-31.9-40.5-47.7-60.9c-6.5-8.5-12.2-17.6-19-25.9
			c-14.4-17.6-29.7-34.6-43.8-52.4c-13.4-16.9-25.8-34.6-38.6-51.9c-7.5-10.1-15.1-20.3-22.7-30.4c-6.9-9.2-13.7-18.4-20.6-27.5
			c-9.8-12.8-19.7-25.5-29.6-38.3c-2.6-3.3-5.4-6.4-8.1-9.7c-0.4,0.2-0.9,0.4-1.3,0.6c-0.2,2.2-0.7,4.5-0.7,6.7c0,6,0.3,12,0.2,18
			c-0.4,31.6-1,63.3-1.4,94.9c0,2.9,0.8,5.9,1.4,9.6c-6.2,1.5-13.2,3.2-20.9,5.1c6.1,7.2,11.4,13.3,16.5,19.7
			c5.9,7.3,5.7,7.4,13.6,2.8c1-0.6,2.2-1.2,3.2-1c0.9,0.1,2.4,1.6,2.3,1.9c-1.9,5.2,2,8.5,4.1,12.1c5.1,9,10.6,17.7,15.7,26.6
			c1.8,3.1,3.5,4.4,7.5,3.8c7.9-1.1,10.6,1.7,10.4,9.7c-0.1,4.2-0.7,8.3-0.6,12.5C460.8,1171.5,461.6,1175.2,462.1,1179.7z
			 M409.6,453.5c0.3,0.4,1.3,1.7,2.1,3.1c4.5,8.6,13.7,10.8,21.1,15.7c8.3,5.5,17.2,6.2,26.7,5.6c10.8-0.8,21.6-1.7,32.3-1.1
			c39.2,2.1,78.3,4.9,117.4,7.3c14.5,0.9,28.6,1.8,43-4.5c16.6-7.3,24.3-20.2,28.4-36.1c5-19.4,3.3-39.3,3.5-59
			c-8.9-4.1-13.9-7.5-15.9-14c-4-13.3-7.4-26.9-10.3-40.5c-1.1-5.4-0.2-11.2-0.2-16.8c-1-0.2-1.7-0.3-2.3-0.4
			c-18.1-1.4-36.2-2.9-54.3-4.1c-24.7-1.7-49.5-3.8-74.2-4.6c-35.9-1.1-71.9-1.1-107.9-1.6c-3.6-0.1-5.1,0.9-5.6,4.9
			c-2.2,18.9-2.7,38.2-10.9,55.9c-0.2,0.3,0.2,0.9,0.2,1.3c0.2,5.2,0.6,10.5,0.4,15.7c-0.5,15.6-1.9,31.2-1.6,46.8
			c0.1,6.9,3.3,13.7,4.8,19.8c2.5-1.8,4.6-3.2,6.6-4.6c1,2.3,3,4.7,2.7,6.8C415.5,450.7,412.2,451.8,409.6,453.5z M699.7,1437.2
			c1.8,0,2.5,0.1,3.1,0c1-0.2,1.9-0.5,2.9-0.8c10.9-3.6,15.6-12.4,18.1-22.5c2.4-9.8,4.2-19.8,5.7-29.7c1.7-11.1,2.8-22.4,4.4-33.6
			c0.5-3.6,0.9-7.4,2.2-10.7c4.5-10.7,3.4-21.4-2.2-30.8c-9.9-16.7-20.4-33.1-31.9-48.8c-16.4-22.4-33.8-44.1-50.9-66.1
			c-22.6-29-45.5-57.8-67.8-87c-12.9-16.9-25.1-34.4-37.5-51.7c-8.8-12.2-17.5-24.5-26.3-36.7c-4-5.5-8.2-10.9-12-16.6
			c-15.2-22.6-30.3-45.3-45.5-67.9c-6.6-9.8-6.8-9.7-17.9-5.5c-1.1,0.4-2.1,1.1-3.2,1.4c-8.2,2.8-16.3,5.6-24.5,8.3
			c-1.2,0.4-2.4,0.7-4,1.1c0.7,1,1,1.6,1.4,2c10,12.4,20.2,24.7,29.9,37.3c9.1,11.8,17.8,24,26.7,36c11.4,15.4,22.7,30.8,34.1,46.1
			c9.4,12.5,18.6,25.1,28.4,37.3c8.3,10.2,17.8,19.3,26,29.5c14.7,18.4,28.9,37.3,43.2,56.1c16.4,21.5,32.7,43.2,49.3,64.6
			c16.2,20.8,33,41.2,47.2,63.5c7.5,11.7,13.8,23.5,11.9,38.4c-2.3,17.8-3.3,35.7-5.4,53.6C703.9,1415,701.6,1425.8,699.7,1437.2z
			 M368.1,1349.8c-0.6,0-1.2,0-1.7,0c0.4,4.6,0.6,9.2,1.2,13.7c0.1,1.1,1.5,2.8,2.3,2.9c7.3,0.2,14.6,0.6,21.8,0.1
			c26.6-1.9,53.1-4,79.6-6.2c25.2-2,50.4-4.1,75.6-6.2c6.5-0.6,6.7-0.9,6.2-7.3c-0.2-2.5-0.2-5-0.8-7.4c-1.3-5.2-1.2-9.8,3.7-13.3
			c0.7-0.5,1.2-1.8,1.1-2.6c-0.7-13.4,1.7-27.1-4.6-40.1c-5.5-11.3-5-11.5-17.6-10.9c-0.2,0-0.3,0-0.5,0
			c-32.8,2.3-65.6,4.9-98.5,6.8c-20.9,1.2-41.8,1.3-62.8,1.7c-4.5,0.1-6.2,1.7-5.9,6.4c0.3,3.8,0.7,7.6,0.7,11.4
			C368.2,1315.9,368.1,1332.9,368.1,1349.8z M667,275.1c0-5.7,0.6-10.8-0.1-15.7c-2.8-18.9-5.4-37.9-9.3-56.5
			c-3.5-16.5-9.7-32.4-22.7-44.1c-9.5-8.5-20.1-15.6-29.8-23.9c-11.4-9.8-25.4-14.3-38.6-20.6c-4.2-2-6.1-0.8-7,3.5
			c-0.8,3.6-2.2,7-3,10.6c-3.7,17.7-8.6,35.4-10.6,53.3c-2.5,22.3-2.7,44.8-3.9,67.3c-0.2,3.5-0.4,7,0,10.5c0.2,1.3,2.2,3.3,3.5,3.4
			c9.9,0.8,19.9,1,29.9,1.8c19.4,1.7,38.8,3.5,58.1,5.6C644.4,271.4,655.2,273.3,667,275.1z M453.3,885c-2.4-3.6-4.5-6.6-6.5-9.6
			c-10.7-16.4-21.2-32.9-34.1-47.7c-22-25.3-43.9-50.8-65.6-76.4c-5.4-6.4-12.3-9.9-20.3-10.2c-7.1-0.3-14.3,0.6-21.3,1.6
			c-8.8,1.2-17.6,3.1-23.8,10.2c-3,3.5-6.5,7.7-7.1,11.9c-0.5,3.7,2.2,8.3,4.6,11.8c11.1,16.1,22.5,32,34.1,47.8
			c12.9,17.5,26.1,34.8,39.1,52.2c7.6,10.1,15,20.3,22.8,30.2c4.4,5.5,6.4,5.7,12.9,3c6.9-2.8,13.8-5.7,20.8-8.4
			C423.3,896,437.9,890.7,453.3,885z M1125.6,444c1-9.4,1.6-17.5,2.9-25.5c5.8-36.3,6.3-72.9,6.9-109.5c0.5-29.8,0.2-59.5,0.4-89.3
			c0-4.1-1.1-5.9-5.4-6.3c-14.6-1.2-29.2-2.7-43.8-4.2c-3.6-0.4-7.1-0.8-11.2-1.3c-0.2,3.4-0.5,6-0.5,8.6c0.1,15,0.9,30,0.4,44.9
			c-1.1,34.1-3.1,68.2-4.2,102.3c-0.7,23.8-0.3,47.6-0.6,71.3c-0.1,4.6,2.1,5.6,6.1,5.6c4.1,0,8.3,0.3,12.4,0.6
			C1101,442.2,1113.1,443.1,1125.6,444z M454,1172.7c-9.9,2.4-19.6,0.6-29.4-1.6c-1.3-0.3-3.6,1.4-4.6,2.8
			c-3.8,5.7-7.1,11.6-10.8,17.3c-1,1.5-2.7,3.2-4.3,3.4c-12,1.7-16.7-1.4-20.3-12.7c-0.5-1.6-1.2-3.2-1.3-4.8
			c-0.4-4.4-0.6-8.8-0.9-13.8c-0.6,0-2.5-0.1-4.5-0.3c-10.5-0.7-10.9-1.1-12.3-11.9c-0.1-0.8-0.2-1.6-0.4-2.5
			c-2.7-13.9-1.6-27.4,3.2-40.8c2.9-8.1,4.7-16.5,7.2-25.3c-7.4-1.2-13.6-2.2-21.3-3.4c-2.3,15.5-5.9,30.5-6.5,45.6
			c-1.5,37.1-1.7,74.2-2.3,111.3c-0.1,7.2,0.4,14.4,0.7,22c32.1-2.7,63.1-5.8,94.3-7.8c31.1-2,62.2-2.8,93.3-4.2c0-0.8,0-1.6,0-2.3
			c-2.4,0-4.9,0-7.3,0c-5.6,0.1-9.1-2.1-11.1-7.3c-0.9-2.2-1.3-4.5-2.3-6.6c-5.4-11.5-11-23-16.6-34.6c-2.4,1-3.6,1.4-4.8,2
			c-7.2,3.7-8.6,3.3-13.4-3.5c-2.8-4-5.7-8-8.6-11.9C460.3,1187.1,458.9,1186.3,454,1172.7z M803,594.8c-3.4-2.4-6.4-3.7-8.4-5.9
			c-3-3.2-5.7-2.5-8.7-0.5c-8.6,6-16.8,12.7-22.3,21.7c-9.3,15.1-18.4,29.8-13.7,49.5c4.8,20.1,6.8,40.8,10.2,61.3
			c0.2,1.4,1.9,3.5,3.2,3.8c25.2,5.1,17.2,4.1,22.4,3.5c9-0.2,18.1-2,26.8-4.3c7.7-2.1,15.4-5.1,22.3-9
			c11.3-6.3,20.4-15.3,28.8-25.1c10.5-12.4,21.1-24.6,31.7-36.9c-8.5-2.1-16.5-3.5-24.2-6c-14.7-4.9-27.6-12-34.1-27.5
			c-4.9-11.7-8.6-23.4-6.2-36.3c0.6-3,0.7-6,1.2-10.4c-5.8,5.7-10.5,10.3-15.1,15c-13.6,13.4-27.2,26.9-40.8,40.2
			c-0.8,0.8-2.4,0.8-3.7,1.2c-0.2-1.5-0.8-3-0.4-4.4c0.3-1.1,1.7-1.9,2.7-2.8C783.9,613.1,793.1,604.3,803,594.8z M373.9,650.8
			c8.8-25.8,11.6-52.2,10.1-79.2c-0.5-8.6-3.6-15.9-11.2-20.5c-3.6-2.2-7.6-2.9-11.7,0c-1.9,1.4-4.5,2-6.9,2.7
			c-10.8,3.1-21.1,7.2-29.7,14.6c-12.4,10.6-19.5,25.2-27.4,39c-9.4,16.5-17.7,33.7-26.1,50.8c-4.1,8.3-7.3,17-11.2,26.3
			c35.2-4,68.3-2,98,18.2 M767.5,1027c2-16.7-1.3-32.6-6.8-48c-3.7-10.5-8.5-20.6-13-31.5c-1,0-3.1-0.1-5.2,0
			c-15.8,1.1-31.5,2.8-47.3,3.4c-31.9,1.2-63.9,2-95.8,2.7c-3.5,0.1-5.1,1.1-5.8,4.4c-2.9,12.9-4.6,25.4-2.1,38.9
			c2.8,15.3,2.5,31.1,3.3,46.7c0.1,1.1-2.4,3-3.9,3.3c-4.7,1.1-9.4,1.6-14.2,2.3c-0.1,1.1-0.3,1.7-0.3,2.4
			c0.9,12.8,1.7,25.5,2.7,38.3c0.1,1.7,1.1,3.5,2.1,4.9c2.7,4,5.7,7.8,8.6,11.6c2.4,3.2,4.7,6.4,7.1,9.5c0.4-1.2,0.2-2.1-0.2-2.8
			c-2.6-4.1-1.4-7.1,1.5-10.9c3.4-4.5,6.5-10,7.3-15.4c1.4-9.7,1.4-19.6,1.3-29.4c-0.1-13.1-1.1-26.3-1.2-39.4
			c0-9.3,2.6-11.3,11.1-12.6c14.8-2.3,29.8-3.2,44.7-4.3c7.6-0.6,15.2-0.6,23.5-0.9c-1.4-5.1-2.7-9.2-3.7-13.4
			c-0.8-3.6-0.6-6.4,4.5-6.4c8.5-0.1,16.9-0.9,25.4-1.4c9.8-0.6,11.2,0.5,11.2,10.3c0,2.3-2.4,4.5-3.9,7c0,0,0.9,0.6,1.6,0.6
			c5.6-0.3,11.4-0.1,16.9-1.2c5.5-1,9.2-0.1,10.4,5.9c3.1-0.2,5.9-0.5,8.7-0.6c4.4-0.2,7.2,1.5,7.9,6.3
			C764.8,1014,766.3,1020.4,767.5,1027z M413.5,259c0.6,0.7,1.1,1.3,1.7,2c32.3,0,64.7,0,97.3,0c-0.7-48.8,0.1-98.2,14-146.7
			c-3.8,1.1-6.9,2.9-10.2,4.3c-21.4,8.6-38.2,23.4-52.7,40.8c-16.2,19.5-29.2,41.2-38.1,65.1C421.3,235.8,417.5,247.5,413.5,259z
			 M918.3,505.4c0.2,2.5,0.8,4.7,0.4,6.7c-0.4,2.1-1.4,4.2-2.5,6.2c-1.5,2.6-4.1,4.9-5,7.7c-5.3,15.6-10.3,31.2-15.1,47
			c-2,6.5-3.6,13.2-4.2,19.9c-0.8,8.1,4.1,15.6,10.1,17.1c15.5,4,30.4,0.5,45.1-3.9c7-2.2,14-5.5,20.1-9.6c14.5-9.9,18.2-26,22-41.7
			c2.5-10.5,1.4-21.1,0.2-31.7c-1.5-12.8-2.4-25.7-3.6-39.3c-8.3,1.1-16.1,2.4-23.9,3.2c-4.1,0.4-6.4,1.8-6.3,6.3
			c0.1,2.3-0.3,4.3-3.6,4.9C940.8,500.3,929.8,502.9,918.3,505.4z M732.8,320.6c7.8-3.9,7.9-11,9.3-17.6c1.1-4.9-0.7-7.8-5-9.2
			c-6.7-2.2-13.5-5-20.5-6c-20.1-2.8-40.3-4.5-60.4-7.4c-32.9-4.7-65.9-8.3-99.2-9.6c-20.3-0.8-40.5-2.5-60.8-3
			c-24.6-0.7-49.3-0.3-73.9-0.9c-18.1-0.4-35.9,0.9-53.6,4.5c-3.1,0.6-6.5,3.1-8.9,2.3c-4.9-1.6-4.7,1.4-5.1,4
			c-0.7,4.8-1.4,9.6-1.5,14.4c0,2.1,1.4,4.3,2.2,6.4c0.5-0.1,1-0.1,1.5-0.2c-1.3,0.7-2.5,1.4-3.9,2.2c1.8,1.6,2.6,2.2,3.3,2.9
			c4.2,3.4,6.6,3,10.2-1c2.1-2.3,4.5-4.9,7.2-5.8c5.9-1.7,12-3,18.1-3.3c13.4-0.8,26.8-1.1,40.3-1.5c7.8-0.3,15.5-0.5,23.3-0.7
			c13.4-0.3,26.7-0.8,40.1-0.6c8.8,0.1,17.5,1.1,26.3,1.6c20.5,1.1,41,2,61.5,3c21.5,1.1,43.1,2.1,64.6,3.3
			c20.6,1.2,41.3,0.5,61.7,5.7C720.3,306.9,730.3,307.7,732.8,320.6z M350,1361.1c0.4-0.3,0.9-0.5,1.3-0.8c1-12.9,2.6-25.7,2.9-38.6
			c0.3-13.4-0.8-26.9-0.6-40.3c0-4.5-1.2-7.4-4.5-10.2c-7-6-10.2-13.4-10-23.1c0.8-28.3,1-56.6,1-84.9c0.1-27.7,0.7-55.2,8.4-82.1
			c0.4-1.4,0.1-3.4-0.7-4.5c-6.6-9.8-13.3-19.5-20-29.2c-2.3-3.4-4.7-6.8-6.6-9.5c-0.8,25.4-1.4,50.9-2.4,76.4
			c-1.4,33.3-3.5,66.7-4.6,100c-1.1,35.6-1.4,71.1-1.8,106.7c0,2.3,1.2,5.2,2.8,6.8c7.4,7.6,15.2,14.8,22.9,22.1
			C342.1,1353.8,346,1357.4,350,1361.1z M275.5,869.3c0.6-0.2,1.1-0.4,1.7-0.6c-0.1-2.2,0.2-4.5-0.5-6.5c-2.8-9-6.8-17.8-8.6-27.1
			c-1.2-6.4,0.3-13.4,1-20.1c0.1-0.9,2.5-1.5,3.8-2.2c0.4,1.1,0.7,2.3,1.1,3.4c0.7,1.8,1.2,4,2.4,5.4c6.1,7,12.5,13.8,18.8,20.6
			c3.7,4,7.6,8,11.3,11.9c0.7-0.4,1.5-0.7,2.2-1.1c-1.1-4.5-0.8-10-3.4-13.2c-9.6-12-19.6-24-30.6-34.7
			c-10.1-9.9-10.4-21.8-10.1-34.1c0.1-3.9,1.5-8,3.5-11.4c9.4-16.7,24.9-23.1,43-24.6c5.3-0.4,10.6,0.1,16,0.1
			c11.2-0.1,19.8,4.5,26.3,13.6c1.7,2.4,4.2,4.3,6.5,6.6c-1.7-5.6-4.1-10.6-4.4-15.7c-0.5-8.4,0.1-17,0.9-25.4c0.4-4-1-6.8-3.8-8.5
			c-6.9-4-13.7-8.6-21.2-10.9c-20.2-6.3-41-7.9-62.2-5.8c-7.3,0.7-11.9,5.2-16.6,9.5c-1.9,1.8-1.4,6.2-2.1,9.4
			c-0.2,1.1-0.5,2.3-0.7,3.4c-2.4,11.5-5.4,22.9-6.9,34.6c-2,15.3,0.6,30,6.9,44.2c1.8,4.1,3.3,9.1,2.8,13.4
			c-0.8,6.8-4.2,13.3-5,20.1c-1.2,9.9-6.1,20.8,5.2,28.7C260.6,857.7,267.9,863.6,275.5,869.3z M370.4,1074.3c0.2-2,0.5-3.3,0.5-4.6
			c1-13.6,2-27.2,2.8-40.8c1.2-20.4,2.8-40.8,3.3-61.3c0.3-15.4-1.9-30.2-11.9-43.2c-11-14.3-20.7-29.7-31.2-44.4
			c-6.1-8.6-12.6-16.9-19-25.4c-0.4,0.1-0.8,0.2-1.2,0.3c0,3.9,0,7.8,0,11.7c-0.5,0.3-1.1,0.6-1.6,0.9c-4.7-4.3-9.5-8.5-14-13.1
			c-4.4-4.5-8.5-9.5-12.7-14.2c-0.3,0.3-0.7,0.6-1,0.9c10.5,12.5,20.8,25.3,31.6,37.5c9,10.1,18.4,19.7,24.6,31.9
			c0.6,1.3,2.3,2.9,3.4,2.9c3.5-0.2,3.9,1.9,3.9,4.3c-0.1,6.6-0.1,13.3-0.5,19.9c-1.1,19.4-2.3,38.9-3.5,58.3
			c-0.4,7.1-6.3,12.7-13.4,13.2c-9.2,0.7-13.5-6-18.1-12c-4.6-5.9-8.7-12.2-13.1-18.2c-8.8-11.9-15.4-24.3-12.9-40
			c3.6-23.5,2.8-47.1,0.2-70.6c-0.1-1-0.9-1.8-1.3-2.8c-0.5,0-1,0-1.6,0.1c-0.8,6.3-2.3,12.7-2.3,19c-0.1,14.8,0.6,29.6,0.9,44.4
			c0.1,2.3,0,4.6-0.1,6.9c-0.4,7.9-2.2,16-0.8,23.5c1.3,7,5.6,13.7,9.4,20.1c5.2,9,11.1,17.5,16.6,26.3c3.9,6.3,7.5,12.8,11.6,18.9
			c7.8,11.6,15.7,23,23.8,34.4c3.2,4.5,6.4,10,11,12.5C358.3,1074,364.6,1073.5,370.4,1074.3z M462,887.8c-5.1,1.4-9.9,2.2-14.4,3.9
			c-20.8,7.9-41.5,15.9-62.1,24.1c-5,2-9,1.5-12.3-2.8c-6.9-8.7-14-17.3-20.7-26.2c-14.9-20-29.7-40.1-44.4-60.2
			c-7-9.5-14-19-20.8-28.5c-5.7-7.9-11.2-16-16.7-24c-0.4,0.1-0.8,0.1-1.2,0.2c1.1,6.8,0.5,13.9,3.6,20.4c0.2,0.4,0.7,0.7,1.1,1
			c2.8,2.9,5.9,5.6,8.5,8.8c12.7,16,25.6,31.9,37.7,48.2c17.1,22.9,33.8,46.2,50.2,69.6c4.5,6.5,8.5,13.7,11,21.1
			c1.8,5.3,1.1,11.5,0.9,17.3c-0.8,21.9-1.7,43.9-2.7,65.8c-0.7,14.5-1.7,28.9-2.6,43.4c-0.3,4.6,2.1,6.7,6.3,6.1
			c5-0.8,9.9-2.6,14.9-3.6c3.2-0.6,3.7-2.4,3.8-5.3c0.7-30.6,1.7-61.3,2.3-91.9c0.3-12.9,0-25.9,0-38.1c8.9-2.9,16.3-5.3,23.7-7.7
			c9-3,17.9-6.2,26.8-9.3c3.4-1.1,5.1,0,6.6,3.5c2.1,4.8,5.6,9.1,8.4,13.6c0.4-0.1,0.9-0.3,1.3-0.4c0.4-4.7,0.8-9.5,1.1-14.2
			c0.3-4.9-1.1-8.9-5.1-12.3c-2.6-2.2-4.3-5.4-6.2-8.3c-1.9-2.8-1.5-5.3,1.4-7.2c1-0.6,1.8-1.4,2.7-2.2
			C463.9,890.9,463,889.5,462,887.8z M652.4,1185.3c0.3,1.1,0.3,1.6,0.6,2c10.3,13.4,20.8,26.7,31,40.3c3.4,4.5,7.3,6.6,12.9,6.3
			c19-0.8,38-1.3,56.9-1.9c3.7-0.1,4.2-2.2,4.1-5.3c-0.4-13.6-0.7-27.2-1-40.9c-0.5-22.9-0.9-45.9-1.4-68.8
			c-0.2-8.5-1.8-17.1-0.7-25.3c1.4-10.1,4.9-19.9,7.5-29.8c1.5-5.5,3-10.9,4.8-17.1c-5.8,1.6-10.1,2.8-14.7,4
			c-0.8,5.9-1.2,12.3-2.7,18.4c-6.9,28.1-10,56.6-10.9,85.5c0,0.7-0.4,1.6-0.1,1.9c3.9,3.8,0.3,6.5-1.4,9.4
			c-3.3,5.6-8.3,9.3-14.3,10.9c-7,1.8-14.4,2.3-21.6,3.5c-11.3,1.9-22.6,4.1-33.9,5.8C662.5,1185.1,657.5,1185,652.4,1185.3z
			 M685.4,1005.3c-8.8,0.5-16.2,0.7-23.7,1.3c-13.4,1.2-26.8,2.2-40.1,4.1c-10,1.4-10.9,3.3-10.6,13.2c0.5,16.3,1.1,32.6,1.7,48.8
			c0,0.9,0.4,1.8,0.7,2.8c5.7,0.3,11.2,0.9,16.6,0.9c17.6,0.1,35.2-0.1,52.8-0.1c2.6,0,3.7-0.8,3.7-3.8c-0.1-11.1,0.3-22.3,0.2-33.4
			C686.5,1027.9,685.9,1016.7,685.4,1005.3z M906.6,623.8c-1.4-0.3-2.3-0.4-3.2-0.6c-10.5-2.4-21.3-3.9-31.3-7.6
			c-14.4-5.3-20-22.7-11.7-35.6c12.5-19.4,25.7-38.3,38.6-57.5c1.4-2,3.2-4.2,3.4-6.4c0.3-3.7-0.6-7.5-1.1-11.3
			c-1.7-13-3.7-25.9-5.1-38.9c-0.5-4.8-2.5-6.9-6.9-5.8c-6.6,1.6-12.9,3.8-19.5,5.6c-9.4,2.6-18,6.7-25.7,12.7
			c-1.2,0.9-2.5,3.1-2.1,4.3c2.4,8.2,3.9,16.4,4.2,25.1c0.3,9.6,3.4,19.3,5.8,28.8c2.8,11,4,21.1-0.6,32.6c-6.4,16.2-3.4,32,9,45.4
			C871.8,626.9,892.7,631.4,906.6,623.8z M626.9,1154.7c2-0.7,3.5-1.8,5-1.8c16.1-0.1,32.3,0.3,48.4-0.3c9.4-0.3,18.9-1.7,28.1-3.5
			c6.2-1.2,9.9-5.9,10.6-12.4c1.1-9.9,2-19.9,2.9-29.8c0.2-2.7,0-5.5,0-8.9c-4.5,0.7-8,1.6-11.6,1.8c-21.2,1.3-42.5,2.7-63.7,3.6
			c-7.8,0.4-15.6-0.3-23.4-0.5c-3.9-0.1-5.7,1.2-5.1,5.6c1.1,7.7,1.3,15.6,2.5,23.3c0.7,4.5,0.7,7.9-5.7,7.8
			C619.2,1145.1,623,1149.9,626.9,1154.7z M427,515.6c1.1,2.4,1.3,3.2,1.8,3.8c8,12,15.8,24.2,24.3,35.9
			c10,13.7,21.5,26.2,34.2,37.4c0.8,0.7,2.9,0.6,3.9,0c10.3-5.9,19.3-13.2,26.8-22.5c2.9-3.6,6.4-6.8,10.3-9.3
			c5.7-3.7,13.2-2.5,16.9,1.9c3.6,4.1,7.3,8.2,10.9,12.3c0.4-0.2,0.7-0.5,1.1-0.7c-1.7-5.6-3.2-12.1-8.1-15.4
			c-12.7-8.7-26-16.4-39.2-24.4c-8.5-5.2-16.9-10.5-25.7-15.2c-4.3-2.4-9.2-5.1-13.9-5.2C456.3,514,442.2,515.1,427,515.6z
			 M536,1031.2c2.6-3.1,4-5.3,5.8-7c3.1-2.7,4.7-5.6,3.8-10c-0.8-3.9-0.6-8-0.7-11.9c-0.4-15.4-2-30.6-7.6-45
			c-0.6-1.6-2.7-3.6-4.2-3.6c-16-0.3-31.9-0.3-47.9-0.4c-1,0-2.1,0.5-3.9,1c7,10.3,13.5,20.1,20.2,29.8c13.5,19.4,27,38.7,40.6,58
			c0.7,0.9,2.2,1.5,3.5,1.7c12.8,1.9,25.5,1.3,38.3-0.6c3.3-0.5,4.2-1.8,4.1-4.8c-0.2-7.2,0-14.3-0.4-21.5c-0.3-6.2-1.3-12.4-2-19.5
			c-11.4,7.1-22.5,9.9-35,3c0.3,5.4,0.4,9.9,0.9,14.3c0.7,5.9-4,14.2-9.7,16.2C540.7,1031.3,539.1,1031,536,1031.2z M499.6,119.1
			c-0.1-0.3-0.2-0.6-0.4-0.9c-1,0.1-1.9,0.2-2.9,0.4c-1.1,0.2-2.3,0.5-3.4,0.8c-22.4,7.5-43.3,17.8-60.5,34.6
			c-3.7,3.6-7,7.7-11.1,10.7c-11.3,8.1-19.1,19.1-26.7,30.2c-8.3,12.2-12.1,26.5-14.5,41.1c-0.7,4-0.7,8.2-0.5,12.3
			c0.1,2.8,1.1,5.5,1.6,8.4c0.2,1.6,0,3.2,0,5.1c9.1-0.6,17.7-1.2,25.4-1.7c4.3-12.4,8.4-24.1,12.4-35.9c6.9-20.1,17-38.5,29.1-55.9
			c10.9-15.7,23.5-29.7,39.1-40.8C491.3,124.5,495.5,121.8,499.6,119.1z M710.9,523.8c-2.2-1.4-3.1-2.4-4.1-2.6
			c-8.7-1.9-17.4-4-26.3-5.2c-3.2-0.4-6.9,0.8-9.9,2.1c-7.7,3.5-15.1,7.7-22.8,11.2c-11.6,5.3-23.5,10.1-35.1,15.4
			c-5.8,2.6-6.1,3.8-2.6,8.9c8,11.6,15.6,23.4,26,33.3c6.5,6.3,9,5.4,14.9,1.5c16.8-11.2,31.8-24.4,43.4-41.2
			c1.1-1.6,2.6-3.1,3.7-4.7C702.3,536.5,706.4,530.4,710.9,523.8z M483.3,481.1c-8.6,0.9-18.4,1.7-28.1,3c-1.2,0.2-3.2,2.4-3.1,3.6
			c0.2,4.8,1,9.5,1.7,14.3c0.4,2.9,2.1,4.2,5.1,4.2c4.5-0.1,9,0.1,13.5,0.3c20.9,0.9,41.9,1.9,62.8,2.6c26.4,0.8,52.9,1.1,79.3,2.2
			c14.1,0.6,14.9,4.3,15.6-14.9c0-0.5-0.1-1,0-1.5c0.2-2.7-0.8-3.9-3.6-4c-14.4-1-28.9-2.2-43.3-3.1c-15.8-1-31.6-1.8-47.3-2.9
			C518.7,483.7,501.6,482.4,483.3,481.1z M747.1,1334.3c8.7,0,18.9-0.1,29,0.1c4.5,0.1,5.6-2.1,5.6-6.1c0-9.7,0.5-19.5,0.5-29.2
			c-0.1-12.6-0.4-25.2-0.9-37.8c-0.2-5.5-2.5-6.9-8.3-6.5c-18.9,1.2-37.8,2.2-56.8,3.4c-2,0.1-4.1,0.7-7,1.3c2.8,4.2,5,7.6,7.3,11
			c7.1,10.8,15.3,21.1,21,32.5C742.1,1312.2,743.7,1323,747.1,1334.3z M629.7,1158c5.5,7,10.5,13.4,15.6,19.6
			c0.7,0.9,2.2,1.5,3.4,1.5c12.3,0,24.4-1.2,36.5-3.7c9.7-2,19.5-3.5,29.4-4.7c10.4-1.2,15.2-5.3,16.7-15.8
			c0.8-5.4,1.3-10.9,1.5-16.4c0.8-18.5,2-36.8,6.8-54.8c3.1-11.8,5.2-24.3,5.2-36.4c0-14.2-2.6-28.5-4.2-42.7
			c-0.1-1.2-1.7-3.3-2.6-3.3c-6.1,0.1-12.1,0.6-18.9,1c0.9,5.9,1.7,10.9,2.3,16c0.9,7.2,1.7,14.3,2.5,21.5c0.1,0.8-0.2,1.6-0.4,2.4
			c-0.6,3.5-1.2,6.9-1.7,10.4c-0.2,1.6,0.4,3.9-0.5,4.8c-4.1,4.3-1.1,8.2-0.2,12.6c2.3-0.2,4.2-0.4,6.2-0.4c5.5-0.1,7.7,1.9,7.5,6.3
			c-0.3,5.1-1.1,10.4-0.4,15.4c0.6,4.7-0.3,7-5,6.6c-1.3,13.9-2.4,27.4-4,40.9c-0.9,7.5-5.3,13.6-12.5,15.2
			c-10,2.3-20.3,3.5-30.5,3.9C665.2,1158.4,648,1158,629.7,1158z M289.3,856.1c0.9,6.4,1.9,12.4,2.4,18.3
			c0.9,11.3,2.2,22.5,2.1,33.8c-0.1,13.3-1.4,26.6-2.2,39.9c-0.2,4.1,0.4,6.9,5.5,8.3c11.3,3.3,22.3,7.6,33.5,11.4
			c2.7,0.9,5.6,1.5,9.9,2.7c0-9.4-0.5-17.8,0.1-26c1-14.2-2-27.5-10-38.9c-7.9-11.3-17.3-21.5-26.1-32
			C299.6,867.7,294.4,861.9,289.3,856.1z M605.8,128.2c1,0.8,2.1,1.5,3.1,2.3c11,8.9,22.5,17.2,32.7,26.9
			c9.3,8.8,16.7,19.3,19.1,32.5c3.3,17.8,7.4,35.5,10.5,53.3c1.8,10.4,2.1,21,3.2,32.4c11.2,1.6,23.4,3.4,36.2,5.2
			C704.3,209.3,669.8,158.5,605.8,128.2z M545.4,903.7c2.5-1,4.6-2.4,6.8-2.5c17.3-0.4,34.6-0.6,51.9-0.9c7.3-0.1,14.6-0.6,21.9-0.8
			c15.1-0.3,30.3-0.5,45.4-0.7c3.2,0,4.3,1.9,4.3,4.8c0,6.5,0.2,12.9,0,19.4c-0.1,3.6-0.5,7.3-1.3,10.8c-0.5,2.3-1.7,4.5-4.9,2.6
			c-0.9-0.5-2.2-0.5-3.4-0.5c-21.3,0.2-42.6-0.3-63.7,4.6c-5.9,1.4-12.2,0.9-18.4,1.1c-8,0.3-16.1-0.3-23.9,0.9
			c-7.8,1.2-15.3-1.3-23.1-0.7c-18.4,1.3-36.9,0.7-55.4,1c-2.1,0-4.3,0.4-6.4,0.7c-0.1,0.8-0.1,1.5-0.2,2.3c1.8,0.4,3.6,1.2,5.3,1.2
			c8-0.1,16-0.7,23.9-0.7c9.8,0.1,19.6,0.9,29.4,0.9c21.8,0,43.5-0.3,65.3-0.4c15.5-0.1,30.9,0.4,46.4-0.2
			c20.1-0.8,40.2-2.5,60.3-3.8c10.8-0.7,21.6-1.3,32.4-2.2c8.9-0.7,17.8-1.6,26.7-2.8c1.4-0.2,2.4-2.5,4.3-4.7
			c-4.8,1-7.8,2.1-10.9,2.2c-18.8,0.5-37.6,0.8-56.3,1.2c-3.4,0.1-5.4-1.7-5.3-5.2c0.1-9.1,0.1-18.3,0.6-27.3c0.4-6.7,1.1-6.9,7.9-7
			c11.8-0.3,23.6-0.7,35.5-1.2c1.4,0,2.7-0.4,4.1-0.6c-0.9-1-1.8-1.4-2.7-1.3c-9.3,0.4-18.6,0.9-27.9,1.3
			c-9.2,0.3-18.5,0.6-27.8,0.5c-5.9,0-11.9-1.2-17.8-0.9c-15.1,0.6-30.3,2.3-45.4,2.4c-25.8,0.2-51.6-0.4-77.3,2.8
			c-0.6,0.1-1.2,0.3-2.3,0.5C544.3,901.9,544.9,902.9,545.4,903.7z M554.5,112.8c-5.1,0-10.3,0.3-15.4-0.1c-4.7-0.3-7.2,1.6-8.1,6.1
			c-2.5,12.4-5.4,24.6-7.6,37.1c-5.5,30.9-5.9,62.2-5.8,93.5c0.1,13.9,0.5,14,14.5,13.9c2.6,0,4-0.6,4-3.6c-0.1-6.3,0.2-12.6,0.2-19
			c-0.1-27.2,2.4-54.2,7.2-80.9C546.3,144.1,550.7,128.7,554.5,112.8z M662.7,324.7c-0.4,0.1-0.8,0.2-1.1,0.4
			c3.3,13.5,6.5,27,10.2,40.4c1,3.5,3.2,7,5.7,9.8c4.9,5.5,10.5,5.3,16.3,0.8c8.2-6.5,14.8-14.2,19.4-23.5c4.1-8.2,7.8-16.6,8-25.9
			c0.1-2.5,0.1-5.1-3.5-5.5c-15.1-2-30.2-4.2-45.4-6.1c-2.9-0.4-7.3-0.9-8.5,0.6C662.1,317.6,662.9,321.6,662.7,324.7z
			 M351.5,1263.1c3.1,6.3,10.7,12.9,15,12.8c15.1,0,30.3,0.3,45.4-0.6c13.8-0.8,27.4-3.4,41.2-4.4c23.9-1.8,47.8-2.9,71.8-4.4
			c6.6-0.4,13.2-1,20.7-1.5c-1.7-3.2-3.2-5.5-4.3-8.1c-1.5-3.5-3.7-4.7-7.7-4.4c-9.8,0.8-19.6,1.1-29.4,1.5
			c-23.9,0.9-47.9,1.3-71.7,2.7c-22,1.3-44,3.8-66,5.6C361.5,1262.8,356.7,1262.9,351.5,1263.1z M744.5,534.9
			c-0.2-0.5-0.4-1-0.6-1.5c-2.2,1.1-4.3,2.2-6.5,3.3c1.5,1.6,2.7,4,4.5,4.7c11.3,4.1,22.8,7.9,34.2,11.8
			c11.1,3.8,22.7,6.6,30.7,16.2c1.8,2.1,3.3,1.9,5.5,0.6c8.3-5,14.2-12.3,19.9-19.9c0.7-1,1-2.8,0.7-4c-1.7-7.6-3.9-15.1-5.5-22.7
			c-0.8-3.7-3-3.8-5.9-3.2c-15.8,3.2-31.5,6.4-47.3,9.5C764.4,531.4,754.4,533.1,744.5,534.9z M1103.6,451.5
			c-0.1-0.5-0.1-1.1-0.2-1.6c-2.1,0-4.3,0.3-6.4,0c-14.6-2.3-29.2-3.1-43.9-0.1c-16.9,3.5-34,6-50.9,9.4
			c-23.8,4.9-47.4,10.2-71.1,15.4c-5.9,1.3-11.8,2.7-17.9,4.1c0.7,4.6,1.4,8.4,2,12.3c7.9-1.5,15-2.9,22.2-4.3
			c12.5-2.5,25-5,37.5-7.5c20.8-4.3,41.7-8.4,62.4-13c10.2-2.2,20.2-5.6,30.4-7.9C1079.5,455.7,1091.6,453.7,1103.6,451.5z
			 M597,556.8c-12.1,31.3-23.7,61.4-35.6,92c6.7,0,13.6,0.1,20.4-0.1c1.2,0,2.8-1.3,3.3-2.4c9.4-18.5,18.7-37.1,28-55.6
			c1.4-2.9,1.4-5.4-0.9-8.1c-2.5-3-4.3-6.7-6.4-10.1C603.2,567.6,600.4,562.7,597,556.8z M653.9,513.9c0,0.3,0,0.7,0,1
			c2.5-0.5,5-0.9,7.4-1.6c5.1-1.5,10-3.9,15.2-4.5c11.3-1.3,22.9-0.9,34.1-2.8c27.3-4.6,54.5-10.1,81.8-15.3
			c7.6-1.4,15.2-2.9,21.7-4.2c1.7-5.4,3.1-9.9,4.5-14.3c-0.1,0-0.7-0.2-1.1-0.1c-10,3.9-20.2,7.6-30.1,11.8
			c-19.3,8.1-38.7,11.7-57.8,0.3c-7-4.2-13.1-4.4-20.1-2c-6.6,2.3-14,3.1-19.8,6.7C677.4,496.5,665.8,505.5,653.9,513.9z M612,121.6
			c64.4,33.7,98.9,86.9,104.7,159.2c4.1,0.7,8,1.4,12.1,2.1c0.6-14.4-0.4-28.3-3.7-41.9c-5.7-23.7-18.3-44-31.9-63.8
			c-3.7-5.5-7.8-11-12.8-15.2c-9.5-8-19.6-15.4-29.8-22.4C638.8,131.4,625.6,126.1,612,121.6z M788.4,580.2
			c-19-11.5-38.6-18.1-58.5-26.1c5.4,26.4,10.6,51.2,16.1,77.8C754.4,609.5,767.3,592.4,788.4,580.2z M713.1,997.1
			c-3.5,1.7-5.4,3.1-7.4,3.3c-1.6,0.2-3.3-1-5-1.6c0.8-1.3,1.4-3.1,2.6-3.7c3.6-2,7.6-3.4,11.2-5.5c1.1-0.6,1.7-2.6,1.8-4
			c0-0.5-2.1-1.6-3.3-1.6c-3-0.1-6,0.2-9,0.4c-5.9,0.4-11.7,0.8-17.8,1.2c9,30.4,5.7,60.7,5.9,90.9c6.4-0.4,12.2-0.9,18-1
			c5.4-0.1,4.9-3.7,4.9-7.4c-0.1-4.2-2.5-4.4-5.7-3.8c-2.1,0.4-4.4,1-6.4,0.7c-1.8-0.3-3.4-1.7-5-2.6c1.4-1.4,2.6-3.4,4.3-4.1
			c3.9-1.5,8.1-2.3,12-3.6c0.9-0.3,1.8-1.8,1.9-2.9c0.4-3.8-0.4-6.4-5.4-5.6c-1.6,0.2-3.5-2-5.3-3.1c1.5-1,2.9-2.2,4.5-2.8
			c1.7-0.6,3.7-0.2,5.4-0.7c1.1-0.3,2.7-1.4,2.7-2.1c-0.1-2.3-0.4-4.8-1.6-6.6c-0.6-0.8-3.6-0.2-5.4,0.3c-2.1,0.5-4,1.9-6.1,2.2
			c-1.8,0.2-3.8-0.6-5.7-0.9c1.1-1.6,1.8-3.8,3.3-4.5c3.4-1.6,7.2-2.5,10.9-3.6c3.9-1.1,3.2-3.9,2.7-6.8c-0.5-3.1-2.1-4.2-5.3-3.6
			c-2.9,0.6-5.7,0.5-6.6-3.6c3.3-0.9,7.7-0.8,9.2-2.8C714.7,1005.5,713.3,1001.3,713.1,997.1z M244.8,854.7
			c0.5,7.6,0.7,14.2,1.3,20.8c1.4,14.2,3,28.3,4.7,42.4c0.7,5.9,2.9,7.9,8.9,8c5.4,0.1,10.8-0.6,15.5-0.9c0-16,0-31.2-0.1-46.5
			c0-0.9-0.6-2-1.2-2.5C264.6,869.1,255.2,862.3,244.8,854.7z M370.7,307.5c6.7,1.3,10.3,6.1,9.8,11.5c-0.4,4-1.5,7.9-1.4,11.9
			c0.3,8.1,0.7,16.2,2.1,24.1c1,5.8,5.1,7.4,10.6,5.5c0.9-0.3,2-0.8,2.9-0.7c3.6,0.6,4.8-1.5,5.4-4.4c2.4-11.7,4.8-23.4,6.9-35.1
			c1.2-7,1.6-14,2.5-21.8C396,299.4,382.7,297.6,370.7,307.5z M544.1,954c2,12.2,4,24.2,6.1,36.2c0.2,1.1,0.5,2.4,1.1,3.2
			c4.2,5.4,13.2,7.4,21.1,4.7c8.4-2.8,10.4-5.6,10.5-14.4c0-2-0.1-4,0.3-6c1.5-7.8,3.2-15.5,4.9-23.7C573.1,954,558.1,954,544.1,954
			z M550.4,936.9c16.6-0.6,32-1.3,47.4-1.7c3.4-0.1,4.2-1.5,4.2-4.5c0-6.3,0.2-12.6,0.4-18.9c0.2-5.3-0.5-6-5.9-5.8
			c-13.6,0.5-27.2,1-40.8,1.1c-3.8,0-5.3,1.5-5.3,4.7C550.3,920,550.4,928.1,550.4,936.9z M728.2,1079.6
			c-15.4,1.7-30.1,4.6-44.8,4.7c-20.3,0.1-40.5-1.8-60.8-3c-3.4-0.2-6,0-5.9,4.3c0.1,3.7,0,7.4,0,11.4c14.8,0,28.6,0.6,42.3-0.1
			c21.7-1.1,43.4-3.1,65.2-4.9c1.4-0.1,3.7-1.5,3.9-2.6C728.5,1086.2,728.2,1082.9,728.2,1079.6z M822.3,505.4
			c-1.2-3.3-1.9-5.5-2.8-7.7c-2.7-6.4-2.7-6.1-9.4-4.7c-18.1,3.8-36.1,7.4-54.3,10.9c-16.8,3.2-33.6,6.1-51.5,9.3
			c3.5,1.9,6.4,2.8,8.3,4.7c5.9,5.6,12,4.8,19.3,3.1c10.9-2.6,22.2-3.4,33.4-5.2c13.6-2.2,27.2-4.7,40.7-7.1
			C811.2,507.8,816.4,506.6,822.3,505.4z M846.4,564.9c-0.6-0.4-1.1-0.7-1.7-1.1c-1.9,2-4.7,3.7-5.5,6.1c-3.4,10.4-5.1,21-2.8,31.9
			c3.1,14.7,10.8,26.8,23.5,34.5c7.9,4.8,17.3,7.6,26.5,9.6c9.2,1.9,17.8-2.9,26.2-6.3c4.4-1.8,6.2-7.4,5.2-13.3
			c-20,9.1-39.7,10.1-57-5.1C843.7,606,840.1,586.6,846.4,564.9z M381.9,1081.8c-1.2,3.2-2.2,5.1-2.7,7.1c-1.9,7-3.1,14.3-5.5,21.1
			c-4.3,12.4-5.8,24.7-3.2,37.7c2.2,11-0.4,10.5,13.1,10.6c6.9,0,6.7-0.3,7.2-6.9c1.4-17.4,3-34.7,4.5-52.1c0.1-0.8,0.1-1.8-0.3-2.3
			C391,1092.3,386.9,1087.5,381.9,1081.8z M477.3,937.4c5.5,0,10.4,0,15.2,0c14.4-0.2,28.9-0.4,43.3-0.5c2.5,0,4-0.8,4-3.7
			c0.2-7.8,0.8-15.5,0.8-23.3c0-0.9-2.6-2.5-4-2.6c-3.6-0.1-7.3,0.6-10.9,0.8c-12.4,0.4-24.9,0.7-37.3,1.1c-6.7,0.2-8.6,1.7-9.5,8.1
			C478.2,923.4,477.9,929.7,477.3,937.4z M454.5,1167.6c0.2-4.2,0.5-8.5,0.6-12.8c0.1-3.8-2.6-5.7-5.8-3.6c-4.9,3.2-7.1,0.1-9.1-3.1
			c-3.4-5.5-6.3-11.3-9.6-16.9c-3.3-5.6-6.8-11.1-10.2-16.6c-1.6,2.3-2,4.2-2.3,6.1c-1.5,10.5-2.9,21.1-4.4,31.6
			c-0.7,4.9,2.9,11.6,7.6,12.9C432,1168.2,442.8,1169.5,454.5,1167.6z M412.4,1115.3c-3.3,0-5.5,0.2-7.6,0c-4.3-0.5-5.7,1.3-5.9,5.6
			c-0.6,11.6-1.5,23.2-2.8,34.8c-0.3,3-1.4,6.7-3.5,8.5c-5.6,4.9-5.6,9.9-2.6,15.9c0.8,1.6,1.4,3.4,1.6,5.2c0.4,2.8,1.5,4.1,4.5,4.1
			c3.3-0.1,6.8,2.1,9.1-2.4c2.3-4.6,5-9,8-13.2c2.5-3.5,2.2-5.9-0.8-8.9c-4.4-4.4-6.2-9.3-4.8-16.1
			C409.9,1137.8,410.8,1126.7,412.4,1115.3z M756.4,886.5c0.2-0.8,0.4-1.6,0.7-2.4c-1.2-0.7-2.4-1.9-3.6-2
			c-3.5-0.1-6.9,0.3-10.4,0.6c-16.3,1.1-32.5,2.7-48.8,3.3c-18.6,0.7-37.2,0.5-55.8,0.8c-19,0.3-37.9,0.6-56.9,1.1
			c-19.1,0.5-38.2,1.2-57.3,2c-15.4,0.7-30.8,1.7-46.2,2.6c-2.2,0.1-4.4,0.3-6.9,0.5c2.5,4.1,5.3,6.5,10,6.1
			c19.7-1.7,39.5-3.3,59.2-4.8c16.7-1.3,33.5-3.1,50.2-3.8c17.6-0.7,35.3-0.4,52.9-0.7c14.8-0.2,29.6-0.6,44.4-1
			C710.6,888.1,733.5,887.3,756.4,886.5z M646.8,904.5c0,0.4,0,0.9,0,1.3c-9.5,0-19,0-28.4,0c-4.3,0-6.3,1.8-6.3,6.3
			c0.1,5-0.1,10-0.4,15c-0.2,3.9,1.2,5.1,5.2,4.9c16.2-0.9,32.5-1.5,48.8-2.1c4.2-0.1,5.5-1.9,5.2-5.9c-0.4-5-0.8-10-0.6-14.9
			c0.2-4-1.4-4.7-5-4.6C659.1,904.7,652.9,904.5,646.8,904.5z M727.1,319.8c0.4-0.3,0.8-0.7,1.2-1c-1.7-1.8-3.1-4.6-5.1-5.2
			c-11-3.1-22-7-33.3-8c-21.5-1.9-43.2-1.9-64.8-3c-26.9-1.4-53.8-3.6-80.7-4.7c-27.1-1.1-54.2-1.8-81.3-2
			c-15.3-0.1-30.5,0.9-45.8,1.4c2,0.7,4,1,6,1c15.3-0.1,30.6-0.7,45.9-0.2c33.3,1,66.5,2.3,99.7,4.1c28.1,1.5,56.1,3.7,84.1,5.9
			c16.4,1.3,32.7,3.5,49.2,4.9C710.9,313.8,719.4,315.2,727.1,319.8z M693.8,1238.9c1.7,2.7,2.2,3.7,2.9,4.6
			c4.1,5.5,6.6,10.9,16.4,9.2c13.7-2.4,28.1-1.1,42.2-1.7c4.9-0.2,9.7-1.3,14.5-1.9c0.1-0.5,0.3-1,0.4-1.5c-5.3-3.6-9.4-9.3-17-9.2
			c-7.6,0.1-15.3,0.5-22.9,0.6C718.7,1239,707,1238.9,693.8,1238.9z M298,963c-0.4,0.4-0.7,0.8-1.1,1.3c5.4,7.9,10.7,15.9,16.2,23.7
			c3,4.2,6,8.5,9.7,11.8c2.2,1.9,6.5,3.6,8.8,2.7c2.5-1,4.7-4.8,5.6-7.8c1.2-4.2,1.5-8.8,1.5-13.3c0-1.7-1.2-4.3-2.6-4.9
			c-5.6-2.5-11.4-4.4-17.1-6.4C312,967.6,305,965.3,298,963z M716.3,931c0,0.2,0,0.3,0,0.5c3.5,0,7,0.3,10.5-0.1
			c1.9-0.2,4.2-1,5.5-2.3c6.4-6,7.3-15.6,2.1-22.7c-1.7-2.3-3.4-5.2-7.4-4.9c-7.3,0.5-14.6,0.4-21.9,0.9c-1.1,0.1-2.9,1.7-3,2.8
			c-0.4,7.1-0.6,14.2-0.6,21.4c0,3.1,1.2,4.9,4.8,4.6C709.6,930.7,712.9,931,716.3,931z M567.5,602.5c-2.5-7.4-5.3-15.5-7.9-22.9
			c-1.7,4.2-2.7,8.6-5.1,11.9c-1.5,2.1-5.5,3.8-7.9,3.3c-2.4-0.5-5.3-3.7-6.1-6.2c-1.2-4.2-0.9-8.8-1.3-13.3
			c-5.3-0.1-7.1,1.6-5.5,7.2c1.8,6.5,3.9,13,6.3,19.4c4.9,12.7,10.1,25.4,15.2,38c2.1-1.9,3-3.3,3.6-4.9c0.7-1.6,1.1-3.4,1.7-5
			c-9.2-6.7-13-14.4-10.2-20.9c0.8-1.9,2.3-4.2,4-4.7C558.4,603.3,562.8,603.1,567.5,602.5z M737.7,931.4c8.2-0.5,14.8-0.7,21.4-1.4
			c1-0.1,2.6-2.1,2.6-3.3c0.2-7.6,0.1-15.3,0.2-22.9c0.1-2.9-1.2-3.9-3.9-3.8c-6.4,0.3-12.9,0.7-20.1,1
			C742.2,911,745.1,920.5,737.7,931.4z M605.9,1346.8c-3-5.5-5.8-10.4-8.4-15.3c-5.5-10.8-11-21.6-16.4-32.4
			c-1.6-3.2-3.4-4.3-7.1-3.3c-3.7,0.9-7.6,0.9-11.4,1.3c0.2,3.2,0,6.8,0.6,10.4c0.3,1.7,1.4,3.8,2.8,4.6c8,4.7,16.1,9.1,24.3,13.5
			c2.8,1.5,4.7,2.9,4.2,6.8c-0.5,4.4,0.4,8.9,0.8,13.8C598.9,1346.4,602.2,1346.6,605.9,1346.8z M571.5,1082.4
			c0.6-0.2,1.1-0.5,1.7-0.7c-1.1-10.5-2.1-21-3.2-31.5c-7.8-0.5-14.8-0.9-23.4-1.4C555.5,1060.8,563.5,1071.6,571.5,1082.4z
			 M748.1,1008.2c1.1,11.1,2,20.5,2.8,29.9c0.2,2.9-0.1,5.8,4.4,5.2c5.4-0.7,7-2.3,6.3-6.7c-1.2-7-2.6-13.9-3.8-20.9
			c-0.4-2.3-0.4-4.6-0.6-6.9c-0.3-3.5-2.7-3.4-5.1-2.7C750.4,1006.6,748.9,1007.8,748.1,1008.2z M605.3,1125.2
			c-0.5,0.2-1,0.5-1.4,0.7c3.1,3.9,6.1,7.9,9.2,11.8c0.4-0.2,0.8-0.4,1.3-0.6c-1.1-13.3-2.1-26.6-3.2-39.9c-2,1.2-2.7,2.6-3.8,3.6
			c-5.7,5.5-7.5,11.2-2.2,18.1C606.2,1120.2,605.3,1123,605.3,1125.2z M587.9,1342.8c0.5-0.4,1-0.7,1.6-1.1c-0.9-4.1-0.3-10-2.9-12
			c-6.5-5.2-14.3-8.6-21.6-12.7c-0.5,0.4-1,0.8-1.4,1.2c0.6,2.4,0.5,5.5,2.1,7c4.9,4.9,10.3,9.3,15.6,13.6
			C583.3,1340.4,585.7,1341.5,587.9,1342.8z M568.6,614.1c-2.9-2.2-4.9-4.8-6.6-4.6c-2.3,0.2-5.2,2.2-6.2,4.3
			c-1.2,2.5,4,9.5,5.8,8.6C564.2,620.9,565.7,617.7,568.6,614.1z M950.3,488.8c-11.4,2.9-22,5.7-32.7,8.4
			C925.3,499.4,949,493.1,950.3,488.8z M632.6,526.4c4.3-2.2,8.1-4.1,11.8-6.1c-3.8-1.7-7-2.4-10.3-2.8c-2.9-0.3-4.5,1-3.5,4.1
			C631,523.1,631.7,524.4,632.6,526.4z M554.5,582.5c-2.4-2.1-3.8-3.3-5.2-4.5c-1.4,1.8-3.5,3.5-3.9,5.4c-0.2,1.4,2,3.2,3.1,4.8
			C550.2,586.7,551.9,585,554.5,582.5z M757.4,893.2c-0.1-1-0.1-2.1-0.2-3.1c-5.8,0.6-11.6,1.1-17.4,1.7c0,0.5,0.1,0.9,0.1,1.4
			c3,0,6,0,8.9,0C751.7,893.2,754.6,893.2,757.4,893.2z M474.3,910.2c1.3-4.8-2.4-9.7-8-10.7C469,903.1,471.7,906.7,474.3,910.2z"/>
		<path d="M665,679.8c-7.4,5.8-14.4,11.2-21.2,16.7c-3.3,2.7-6.3,2.7-8.7-1c-2.6-4.2-4.9-8.6-7.3-13c-2-3.8-4.7-5.8-9.5-5.4
			c-8.3,0.7-16.5,0.4-24.3-3.7c-4.4-2.4-7-4.8-6.9-9.2c2,0.9,3.6,1.8,5.3,2.4c5.4,1.9,10.7,4.2,16.2,5.4c3.6,0.8,7.7-0.2,11.4,0.1
			c8,0.8,12.3-4.4,16.8-9.2c-5.8-8.1-11.4-15.7-16.6-23.5c-2-3-1.7-5.9,2-8.3c7.5-4.9,14.7-10.3,22-15.5c5.7-4,6.3-3.3,10.9,1.7
			c4.8,5.2,10.7,9.3,16.9,14.5c2.9-5.4,6.3-11.9,9.9-18.3c0.7-1.3,1.9-2.9,3.2-3.2c1-0.3,2.8,0.9,3.5,2c7.1,9.9,14.1,19.9,21.8,30.7
			c-5.6,4.1-12.1,8.9-18.6,13.6c-1.2,0.9-2.5,1.7-3.6,2.7c-1.4,1.3-2.6,2.9-3.9,4.3c2.6,1.8,5.5,5.5,7.6,5.1
			c7.4-1.3,14.6-4,21.9-6.3c1.5-0.5,2.8-1.4,4.6-2.3c-0.7,6.3-8,10.3-22.1,13.5c-3.5,5.1-5.7,9.9-9.2,13.5
			c-11.2,11.2-9.1,9.5-18-1.3C667.8,684.1,666.6,682.1,665,679.8z M676.5,659.8c-2.6-3.8-4.8-7.6-7.6-10.8c-0.8-1-3.8-1.5-4.7-0.8
			c-11.2,9.3-22.2,18.8-33.5,28.4c2.9,4.9,5.7,9.7,8.7,14.8C655.3,684.3,663.2,668.9,676.5,659.8z M624.8,636.9
			c3.2,4.2,5.8,7.6,8.9,11.7c8.1-7.2,15.7-14,23.4-20.9c-3.3-2.9-6-5.2-9.2-8C640.3,625.4,632.8,631,624.8,636.9z M679.7,631.7
			c2.8,2.7,5.4,5,7.7,7.5c2.5,2.8,4.7,5.8,7.2,8.9c3-2.2,5.8-4.4,8.7-6.5c-5.8-7.3-11.4-14.2-17.2-21.4
			C683.8,624.3,681.6,628.4,679.7,631.7z M678.4,665.4c-3.1,2.9-5.8,5.2-8.3,7.9c-0.7,0.7-1,2.7-0.5,3.4c2.6,3.7,5.5,7.2,8.3,10.8
			c2.8-3.1,5.7-6.1,8.5-9.2c0.6-0.7,0.9-1.7,1.5-2.8C684.8,672.2,681.8,669,678.4,665.4z M690,650.7c-4.9-4.7-9.3-8.9-13.7-13.1
			c-5.3,5.5-3.9,10.4,5.4,18.7C684.7,654.3,687.7,652.3,690,650.7z M650,652.3c2.6-2.3,4.8-4.3,7.3-6.5c-1.5-2.1-2.8-4-4.4-6.3
			c-2.8,2.6-5.2,4.7-7.7,7.1C646.9,648.6,648.2,650.2,650,652.3z M662.4,631.7c-5.5,2-4.8,5.2-2.5,8c0.8,1,4.1,1.6,4.8,0.9
			C668.8,636.5,662.4,635.3,662.4,631.7z M636.5,653.1c1.9,2.3,3.4,4.1,5.1,6.2c1.8-1.5,3.1-2.5,4.9-4c-2.1-2-3.8-3.5-5.6-5.2
			C639.6,651,638.4,651.8,636.5,653.1z"/>
		<path d="M555.1,667.8c-0.8,1.5-1.1,3.3-2.1,3.9c-4,2.2-8.1,5.6-12.3,5.8c-17.9,0.8-35.8,0.8-53.7,0.7c-7.5,0-15-0.4-22.4-1.2
			c-14.6-1.6-29-4.1-40-15.1c-1.1-1.1-2-2.3-3.1-3.4c0.2-0.5,0.5-1,0.7-1.5c1.7,0.4,3.9,0.3,5,1.3c12.2,11.2,27.2,13.6,43,13.9
			c20.6,0.3,41.2,1.1,61.8,0.7C539.3,672.9,546.6,669.8,555.1,667.8z"/>
		<path d="M1062.9,320.8c-2.8,1.5-5.6,3.8-8.5,4.2c-13.8,2-26.6-0.9-37.1-10.4c-6.3-5.6-12-11.9-17.5-18.4
			c-11.9-13.9-25.5-16.1-41.2-6.6c-10.7,6.5-19.2,15.2-27.4,24.5c-9.7,11.1-21.1,20.5-34.3,26.9c-7.1,3.5-15.7,5.3-23.6,5.5
			c-23.5,0.7-43.4,10.1-62.1,23.1c-14.7,10.2-30.5,17.6-48.5,19.3c-5.8,0.6-11.9,1.7-17.3,0.3c-5.1-1.3-10.9,0.6-15.6-4.1
			c-2.4-2.4-7.5-1.9-11.2-3.3c-2.6-1-4.9-2.8-7-4.7c-0.8-0.7-0.5-2.6-0.6-3.9c1.2,0,2.6-0.3,3.6,0.2c16.9,7.7,34.1,11.5,53,7.8
			c14.5-2.9,26.8-9.5,39-16.9c8.9-5.4,17.8-11,27.2-15.6c11.5-5.7,24-7.2,36.7-7.7c15.6-0.6,29-6.7,40.2-17.3
			c9.3-8.7,17.7-18.4,27.2-26.8c9.9-8.9,20.7-16.7,34.5-19c8-1.3,15.2,0.4,21,6.2c7.1,7,13.7,14.4,20.9,21.2
			c11.8,10.9,25.2,17.1,41.8,13c1.9-0.5,4-0.1,6-0.1C1062.4,319,1062.6,319.9,1062.9,320.8z"/>
		<path d="M936.1,348.4c2.5-10.6,4.3-21.5,7.8-31.7c5.5-15.8,24.9-21.2,38.5-11.4c1.5,1.1,3.1,2,4.7,2.7
			c11.7,5.4,17.2,29.8,11.2,41.5c-2.6,5.1-5.4,10.2-8.4,15.1c-0.6,1-2.8,1-4.2,1.5c-0.2-1.6-0.5-3.2-0.6-4.8c0-0.3,0.3-0.6,0.4-0.9
			c7.3-11.1,5.5-22.7,1.6-34.3c-3.2-9.7-15-16.6-24.3-12.8c-4.6,1.9-9,6.7-11.2,11.3c-4.9,10.4-7.9,21.7-7.3,33.3
			c0.3,6.2,3.1,12.1,8.2,16.5c4.3,3.7,8.9,2.9,13.6,1.2c2.3-0.8,4.6-2,6.9-2.6c1.2-0.3,2.9,0,3.8,0.7c0.5,0.5,0.3,2.5-0.2,3.5
			c-2.9,5.7-9.4,8.4-16.1,6.9c-11.4-2.5-20.8-12.4-22.6-24c-0.6-3.8-0.8-7.6-1.2-11.3C936.7,348.6,936.4,348.5,936.1,348.4z"/>
		<path d="M1059.4,424.1c-9.1-6.2-18.3-5.4-26.7-2.6c-14.1,4.7-28.3,9.8-41.5,16.6c-16.4,8.5-32.8,12.1-50.9,7.6
			c-3.4-0.8-6.8-1.4-10.1-2.5c-2.3-0.8-4.6-1.9-6.5-3.4c-0.9-0.8-0.7-2.8-0.9-4.3c1.5,0,3.2-0.5,4.4,0c18.4,7.7,36.4,9.1,55.2-0.1
			c16.2-7.9,31.9-17.4,50-20.6c6.4-1.2,13.2-1.2,19.7-0.5C1057.2,414.8,1058.5,417.3,1059.4,424.1z"/>
		<path d="M978.6,355.7c-0.2,6.5-4.1,11.6-8.8,13.4c-4.1,1.6-10.2-0.2-13.6-3.8c-5-5.3-6.2-11.8-4.6-18.6c1.1-4.6,3.1-9.1,5.2-13.4
			c1.3-2.6,3.4-4.8,5.4-7c3-3.4,5.3,0.5,8,0.8c8,1.1,12.9,5.6,14.6,13.5c0.1,0.4-0.1,0.9-0.2,1.6c-2.9,0.5-4.7-0.2-5.5-3.3
			c-1-3.8-3.1-6.4-7.5-6.8c-4.6-0.4-7.8,1.6-10,5.2c-4.2,6.8-5.4,13.7-0.3,20.9c2.7,3.8,5.9,4.3,9.5,1.5
			C972.7,358.2,975.3,357.3,978.6,355.7z"/>
		<path d="M498.1,328.8c13.1,10.8,12.1,32.3-3.7,41.9c-5.8,3.5-11.8,2.4-17.2-0.5c-7.5-4.1-14.7-9-21.7-14c-1.2-0.9-1.1-3.7-1.5-5.7
			c1.7-0.3,3.4-1,5-0.9c2.2,0.1,4.3,0.9,6.9,1.4c-0.2-10,2.8-18.3,14.2-22.8c-15.7-1.8-28.9,0.1-40.4,8.6c-3.4,2.5-5.2,0.9-6.9-1.4
			c-1.9-2.4-0.5-4.2,1.7-5.7c13.5-9.6,27.4-18.2,44.8-18.2c10.5,0,20.9,0,30.8,4.4c4.4,2,7.5,10.7,4.8,14.7c-0.7,1-3,1.6-4.3,1.4
			C506.3,331.3,502.2,330,498.1,328.8z M484.6,350.5c2.7-2.8,4.5-4.5,6.2-6.3c-1.5-1.2-3-3.4-4.6-3.5c-2.3-0.1-5.8,0.2-5.4,4
			C481.1,346.3,482.8,347.7,484.6,350.5z"/>
		<path d="M590.7,352.8c3.1,0.3,5.9-0.1,7.9,1c3.4,1.8,3.7,5.4,0.5,7.7c-6.6,4.9-13.1,10.6-20.5,13.8c-14.4,6.2-29.8-2.3-29.7-19.5
			c0-7.4,2.3-13.6,7.2-19.1c7.5-8.4,26.7-8.6,32.2,7.8C589.4,347.7,590.2,350.9,590.7,352.8z M568.4,352.3c2.6-2.3,4.6-4,6.5-5.8
			c-1.6-1.2-3.5-3.5-4.8-3.2c-2.2,0.5-3.9,2.7-5.9,4.3C565.5,348.8,566.6,350.1,568.4,352.3z"/>
		<path d="M568.5,403.2c9.1-3.4,15.6,2.4,22.4,6.5c2.4,1.4,5,4.8,2,8c-2.8,2.9-6,2.2-8.7-0.8c-0.4-0.5-1.1-0.7-1.9-1.2
			c-6.7,10.6-17.9,12-28.5,12.2c-24.9,0.4-49.8-0.4-74.7-0.9c-1.8,0-3.9-0.9-5.3-2c-1-0.9-1.8-3.1-1.4-4.3c0.4-1.2,2.2-2.4,3.6-2.7
			c2.4-0.5,4.9-0.4,7.4-0.3c6.1,0.1,12.3,0.3,18.4,0.4c14.6,0.2,29.2,0.7,43.8,0.5c9.8-0.1,19.3-2.4,26.9-6.6
			c-1.5-3.4-2.8-6.2-4-8.9L568.5,403.2z"/>
		<path d="M617.4,342.7c-3.8-2-8.9-4.4-13.6-7.3c-11.8-7.3-24.3-12-38.3-12.5c-9.1-0.3-18.2-0.9-27.3-1.7c-1.3-0.1-3.6-1.9-3.5-3
			c0-3.2,0.8-6.5,1.6-9.7c0.1-0.6,1.6-1.2,2.4-1.1c12.2,0.7,24.5,1.3,36.7,2.5c4.4,0.4,8.9,2,12.7,4.1c10.3,5.6,20.4,11.7,30.4,17.9
			c2,1.2,3.5,3.6,4.5,5.7C624.4,340.7,622.1,343.3,617.4,342.7z"/>
		<path d="M528.1,449.2c-0.2,2.7-0.3,4.8-0.8,6.8c-0.1,0.4-2.7,0.9-3,0.5c-1.5-1.9-2.6-4-3.8-6.1c0.3-0.3,0.6-0.5,0.9-0.8
			c-3-0.7-6.2-1.2-9.1-2.4c-1.4-0.6-2.3-2.6-3.5-3.9c1.4-0.5,3-1.6,4.3-1.3c9.2,2.1,17.8,0.3,26.1-3.6c1.2-0.6,3.1,0.2,4.6,0.4
			c-0.6,1.7-0.8,4.3-1.9,4.8C537.3,446,532.2,447.6,528.1,449.2z"/>
		<path d="M632,351c3.5-0.5,5.1,1.1,5.2,4.4c0.1,3.8-2.6,3.1-4.8,3.1c-6.5-0.2-12.4,1.3-17.6,5.5c-0.9,0.7-2.8,0.4-4.2,0.5
			c-0.1-1.8-1-4.5-0.2-5.3c2.4-2.3,5.4-4.5,8.5-5.6C623,352.1,627.6,351.8,632,351z"/>
		<path d="M426.3,346c1.6-0.5,3.5-1.8,4.8-1.3c5.1,1.8,10,4,14.9,6.4c1.1,0.5,2,2.4,2.1,3.7c0.1,1.2-0.8,3-1.8,3.5
			c-0.8,0.4-3.1-0.5-3.5-1.3c-2.4-5.2-7.4-5.5-11.8-6.9c-1.7-0.5-3.3-1.3-4.9-1.9C426.1,347.5,426.2,346.7,426.3,346z"/>
		<path d="M573.9,465.7c3.2-2.7,5-5.1,7.3-6c2.5-0.9,5.9,3.6,6.1,7.2c0.2,3.6-2.7,7.5-5.3,6.4C579.3,472,577.3,469,573.9,465.7z"/>
		<path d="M597.4,470c-5.5-0.6-8.6-1.9-8.7-6.4c-0.1-3.1,3.5-6.1,6.8-5.9c3.4,0.2,6.3,3.6,5.4,7.5
			C600.5,467.3,598.3,468.9,597.4,470z"/>
		<path d="M631.6,361.7c2.9,0.5,6.1,0.4,8.7,1.6c1.7,0.8,4,3.7,3.7,5.1c-0.7,3.3-3.2,1-5.1,0.6c-3.3-0.8-6.8-0.9-10.2-1.6
			c-2-0.4-3.8-1.3-5.7-2c1.9-1.2,3.7-2.6,5.7-3.6c0.8-0.4,1.9,0.1,2.9,0.2C631.6,361.8,631.6,361.8,631.6,361.7z"/>
		<path d="M475.4,466.1c3.2-2.3,4.9-4.4,7.1-5.1c2.4-0.8,7.5,4.7,6.7,7.7c-0.6,2.1-4.2,5.3-4.6,5
			C481.6,471.9,479.1,469.3,475.4,466.1z"/>
		<path d="M504.5,465.1c2-1.3,3.9-3.2,6.1-3.8c2.7-0.7,7.4,4.6,6.7,7.8c-0.4,1.6-3.7,4.1-4.6,3.7c-3-1.2-5.6-3.6-8.3-5.6
			C504.4,466.5,504.5,465.8,504.5,465.1z"/>
		<path d="M574.5,469c-2.7,2.4-4.3,4.9-6.2,5.3c-3.8,0.8-7.3-2.4-6.3-5.6c0.8-2.5,3.8-4.3,5.8-6.5C569.7,464.1,571.6,466,574.5,469z
			"/>
		<path d="M560.1,468c-3,2.9-4.6,5.5-6.7,6.2c-3.1,1-6.8-3.2-6-7.3c0.4-2,3.6-5.1,4.9-4.8C554.8,462.7,556.8,465.3,560.1,468z"/>
		<path d="M549.3,393.6c-0.1,5.3-3.3,9-6.4,8.2c-1.9-0.5-4.1-2.8-4.6-4.7c-0.7-3,4-7.5,7-6.7C547.1,390.8,548.5,392.9,549.3,393.6z"
			/>
		<path d="M468.3,457.9c5.7,0.2,7.3,3,7.4,6.2c0.1,3.4-2.8,4.6-5.9,4.7c-3.6,0.1-6-2.4-5.7-5.4C464.4,461.2,467.2,459.2,468.3,457.9
			z"/>
		<path d="M450.3,458.8c2.1-1.2,4.1-3,6.3-3.6c2.9-0.8,7.1,2.9,6.2,5.4c-0.7,2.1-3.6,5.1-5,4.8c-2.8-0.5-5.2-3-7.7-4.6
			C450.2,460.2,450.3,459.5,450.3,458.8z"/>
		<path d="M498.4,475.3c-2.3-3.5-4.8-5.8-5-8.2c-0.1-1.5,3.1-3.9,5.3-4.7c2.5-0.9,5.9,3.4,5,6.6C503.2,470.9,501,472.4,498.4,475.3z
			"/>
		<path d="M634.8,459.5c1-4.9,3.8-5.7,6.7-5.8c3.9-0.1,4.4,3,4.5,5.9c0.1,3.4-2.2,5.7-5.2,5C638.4,464.1,636.7,461.3,634.8,459.5z"
			/>
		<path d="M534.3,395.4c0.1,5.7-2.8,9.6-6.1,9c-1.5-0.3-3.9-3.1-3.7-3.5c2-3.2,4.5-6.2,6.8-9.2C532.6,393.3,533.9,394.8,534.3,395.4
			z"/>
		<path d="M591.5,394.1c0.4-5.2,2.9-7.5,6.4-7.6c1.2,0,3.3,2.8,3.5,4.6c0.5,3.4-3.6,7.6-6.2,6.7C593.5,397.2,592.3,395,591.5,394.1z
			"/>
		<path d="M451.9,457.5c-3,2.1-5.3,4.8-6.8,4.5c-2.2-0.5-3.9-3.2-5.8-5c2.2-1.9,4.2-4.3,6.8-5.3
			C446.9,451.4,449.2,454.7,451.9,457.5z"/>
		<path d="M583.2,389.8c2.7,3.1,5.4,4.8,5.5,6.6c0.3,3.9-3.4,5.1-6.5,5.2c-1.3,0-4.1-2.7-3.9-3.5C579,395.6,580.9,393.4,583.2,389.8
			z"/>
		<path d="M608.2,451.8c-1,4.1-2.4,6-5.7,6.1c-3.4,0-5.4-2.4-4.6-5c0.6-2.2,3.1-4.5,5.3-5.3C604.2,447.1,606.5,450.2,608.2,451.8z"
			/>
		<path d="M619.7,460.3c2.9-2.1,4.3-3.8,6-4.2c2.7-0.6,6.3,3.4,5.7,6.7c-0.3,1.5-3.3,4-3.9,3.7C625,465.2,623,463.1,619.7,460.3z"/>
		<path d="M539.6,474.5c-1.4-2.5-3.4-4.8-4-7.4c-0.2-1,2.4-3.9,3.9-4c3.3-0.1,5.7,2.2,5.4,5.6c-0.2,2-1.8,3.8-2.7,5.7
			C541.2,474.5,540.4,474.5,539.6,474.5z"/>
		<path d="M525.2,474.8c-1.6-2.8-3.4-5.5-4.6-8.5c-0.2-0.4,3-3,4.7-3c3.7-0.1,5.2,2.8,4.7,6.1c-0.2,1.9-1.7,3.6-2.6,5.3
			C526.8,474.7,526,474.8,525.2,474.8z"/>
		<path d="M432.5,461.4c-1.6-2.2-4-4.3-4.5-6.7c-0.3-1.3,2.4-4.4,4.2-4.8c3.5-0.7,5.1,2.4,5,5.3c-0.1,2-1.7,4-2.7,6
			C433.9,461.3,433.2,461.3,432.5,461.4z"/>
		<path d="M604.4,442.8c-4.6-0.5-6.6-2.5-6-5.4c0.4-2,2.6-4.7,4.5-5.2c3.6-0.9,5,2.5,4.8,5.3C607.6,439.3,605.5,441.1,604.4,442.8z"
			/>
		<path d="M455.8,407.6c2,3.2,4.5,6,4,6.6c-1.5,2.1-3.9,4-6.3,4.7c-1,0.3-4.5-3.6-4.2-4.1C450.5,412.5,452.7,410.8,455.8,407.6z"/>
		<path d="M617.1,463.5c-2.7,2.2-4,4.1-5.6,4.3c-3.6,0.6-5.5-2.2-5.1-5.1c0.2-1.8,3.1-4.8,4.2-4.6
			C612.6,458.5,614.2,460.9,617.1,463.5z"/>
		<path d="M465,455.8c-2.7-2.8-4.4-4.5-6-6.2c1.9-1.7,3.6-4.2,5.9-4.8c1.1-0.3,4.2,2.7,4.5,4.5C469.6,450.9,467.1,452.8,465,455.8z"
			/>
		<path d="M550.8,391.9c3.1-2.9,5.2-5,7.3-7c1.2,1.5,3.4,3,3.4,4.6c0.1,3.4-1.9,6.2-5.6,6.3C554.7,395.9,553.3,393.9,550.8,391.9z"
			/>
		<path d="M423.3,444.9c1.3,1.9,3.8,4,3.5,5.5c-0.5,2.2-3,4-4.7,6c-1.4-1.6-3.9-3.3-3.8-4.9c0-2.2,2-4.3,3.1-6.5
			C422,445,422.7,444.9,423.3,444.9z"/>
		<path d="M587.4,379.2c0.8,1.3,2.2,2.7,2.3,4c0.2,3.7-1.9,6.2-5.6,6.2c-1.1,0-3.4-3-3.1-3.8c0.9-2.4,2.9-4.5,4.5-6.7
			C586,379,586.7,379.1,587.4,379.2z"/>
		<path d="M568.7,403.1c-1.8-0.1-4.1,0.4-5.3-0.5c-1-0.7-1.4-3.5-0.7-4.8c0.9-1.6,2.8-3,4.6-3.8c0.7-0.3,3.3,1.5,3.2,2.1
			c-0.3,2.4-1.3,4.7-2,7C568.5,403.2,568.7,403.1,568.7,403.1z"/>
		<path d="M534,411.1c-0.2-5.5,2.9-5.9,5.4-5.7c1.4,0.1,3.5,2.1,3.6,3.4c0.3,3.6-2.4,5.6-5.6,5.4C535.9,414.1,534.5,411.6,534,411.1
			z"/>
		<path d="M638.1,434.9c4.8-0.1,6.4,2.1,6.1,5c-0.2,1.5-2.3,3.8-3.7,4c-3.8,0.4-5.1-2.9-5.1-6C635.3,436.7,637.5,435.5,638.1,434.9z
			"/>
		<path d="M546.2,405.4c3.2-2.2,5-4,7.2-4.7c0.7-0.2,3.6,2.9,3.4,3.2c-1.4,2.3-3.4,4.2-5.2,6.3C550.3,409,548.9,407.8,546.2,405.4z"
			/>
		<path d="M449.9,451.5c-1.6-1.9-3.7-3.6-4.4-5.8c-0.2-0.8,2.9-3.6,4.6-3.8c1.3-0.1,3.7,2.4,4,4c0.3,1.6-1.4,3.5-2.3,5.3
			C451.3,451.3,450.6,451.4,449.9,451.5z"/>
		<path d="M598.1,399.3c1.9,3,3.5,4.5,3.7,6.3c0.4,2.8-1.4,5.1-4.4,4.6c-1.8-0.3-4.7-2.9-4.5-3.7
			C593.6,404.3,595.6,402.5,598.1,399.3z"/>
		<path d="M521.3,399.3c-3.1,2.3-5.1,3.7-7.1,5.2c-1-1.5-3-3.2-2.8-4.5c0.3-2.6,1.2-6,5-5.4C517.8,395,519,397.1,521.3,399.3z"/>
		<path d="M478.1,458c-2-2.9-4.1-4.6-4.2-6.4c0-1.4,2.6-2.8,4-4.2c1.7,1.8,3.8,3.4,4.9,5.5C483.1,453.4,480.5,455.5,478.1,458z"/>
		<path d="M502.2,448.3c1.9,3.2,3.4,5.3,4.3,7.6c0.2,0.5-2.5,2.9-2.9,2.7c-2.3-1.4-4.4-3.3-6.5-5
			C498.5,452.2,499.8,450.8,502.2,448.3z"/>
		<path d="M656.8,463.1c-2.6-3-4.2-4.9-5.7-6.8c1.2-1,3-3.1,3.6-2.8c2.2,1.1,4.2,2.9,5.9,4.7C660.7,458.4,658.8,460.6,656.8,463.1z"
			/>
		<path d="M465.8,400.8c2.4-2.2,4-3.8,5.7-5.3c1.4,1.5,4.3,3.5,3.9,4.5c-0.6,1.9-2.8,3.7-4.7,4.6C470,404.9,468,402.6,465.8,400.8z"
			/>
		<path d="M462.3,412c2.7-2.2,4.4-4.2,6.5-5.1c0.7-0.3,2.6,2.6,3.9,4c-2,1.7-3.8,3.6-6,4.9C466.2,416.1,464.4,413.9,462.3,412z"/>
		<path d="M509.7,404.8c2.1,2.2,4.2,3.9,4,4.3c-1.2,2.2-2.7,4.4-4.7,5.8c-0.5,0.4-3-1.9-4.5-2.9
			C505.9,409.9,507.4,407.9,509.7,404.8z"/>
		<path d="M537.5,462.2c-2.2-3.3-4-5.4-5-7.8c-0.2-0.5,2.3-3.1,3.8-3.2c3.9-0.4,4.6,2.9,4.6,5.7
			C540.9,458.2,539.3,459.5,537.5,462.2z"/>
		<path d="M494.7,399.6c3.1-2.2,5.1-3.8,7.4-4.9c0.2-0.1,2.9,3,2.6,3.7c-1.1,2.1-2.9,4-4.9,5.4C499.4,404.1,497.1,401.7,494.7,399.6
			z"/>
		<path d="M460.2,392.9c1.6,2.8,3.4,4.7,3,5.3c-1.2,1.9-3.1,3.7-5.1,4.8c-0.6,0.3-2.6-2.1-3.9-3.3
			C455.8,397.8,457.5,395.9,460.2,392.9z"/>
		<path d="M582.2,452.4c2.6-2.3,4-3.6,5.5-4.9c1.4,2.1,3.1,4.2,4.1,6.5c0.2,0.4-2.6,3.1-3.4,2.8
			C586.5,456.2,584.9,454.5,582.2,452.4z"/>
		<path d="M624.1,451.9c-2.7,2-4.5,4.1-5.2,3.8c-1.9-0.9-3.9-2.6-4.7-4.4c-0.3-0.8,2.5-4.2,3.6-4
			C619.6,447.5,621.2,449.6,624.1,451.9z"/>
		<path d="M628,440.1c-2.6,1.8-4.6,3.9-5.2,3.6c-1.8-1.1-3.8-2.9-4.3-4.8c-0.3-1,2.4-2.8,3.8-4.2C624,436.1,625.5,437.6,628,440.1z"
			/>
		<path d="M655.7,438.1c-2.1-3.1-3.8-4.8-4.4-6.9c-0.2-0.9,2-2.5,3.2-3.7c1.8,1.9,3.8,3.8,5.3,5.9
			C659.9,433.8,657.8,435.6,655.7,438.1z"/>
		<path d="M452.7,424.8c1.9,2.5,4,4.1,4,5.7c0,1.2-2.8,3.7-4,3.5c-1.7-0.3-3.2-2.5-4.8-3.8C449.3,428.7,450.6,427.2,452.7,424.8z"/>
		<path d="M437.9,448.5c-1.2-1.8-2.9-3.6-3.3-5.5c-0.2-0.9,2.4-2.3,3.7-3.5c1.4,1.6,3.3,2.9,3.8,4.7c0.3,1.1-1.5,2.8-2.3,4.2
			C439.3,448.5,438.6,448.5,437.9,448.5z"/>
		<path d="M494.1,416.5c-1.6-2.6-3.6-4.7-3.2-5.5c0.9-1.8,3-3,4.6-4.4c1.3,1.4,3.7,3.1,3.5,4.2C498.6,412.6,496.4,414,494.1,416.5z"
			/>
		<path d="M412.1,417.1c1.6,2.5,3.5,4.2,3.1,5.1c-0.8,2.1-2.6,3.7-4.1,5.5c-1.3-1.6-3.7-3.2-3.6-4.6
			C407.7,421.4,409.9,419.8,412.1,417.1z"/>
		<path d="M668.2,457.7c-1.6-2.9-3.2-4.7-3.2-6.4c0-1.2,2.2-2.4,3.4-3.6c1.5,1.9,3.3,3.6,4.3,5.7C673,453.8,670.6,455.6,668.2,457.7
			z"/>
		<path d="M491.1,459.6c-2-2.2-4.3-3.6-4.6-5.3c-0.2-1.2,2.5-2.8,3.8-4.2c1.6,1.8,3.4,3.6,4.6,5.6
			C495.2,456,492.9,457.8,491.1,459.6z"/>
		<path d="M572.4,392.4c-0.8-1.4-2.6-3.1-2.2-4c0.9-2.2,2.8-4,4.3-5.9c0.9,1.4,2.6,2.8,2.5,4.1c-0.2,2.1-1.7,4-2.6,6
			C573.7,392.5,573,392.5,572.4,392.4z"/>
		<path d="M559.9,461.6c-2-2.9-3.8-4.5-4.3-6.5c-0.2-1,1.9-2.5,3-3.8c1.7,1.8,3.7,3.4,5,5.5C564,457.2,561.9,459.1,559.9,461.6z"/>
		<path d="M660,436.6c2.2,3.2,3.9,4.9,4.6,6.9c0.2,0.7-1.8,3-3,3.2c-2.9,0.4-4.7-1.5-4.5-4.4C657.1,440.8,658.4,439.5,660,436.6z"/>
		<path d="M642.5,449.1c2.3-2.2,3.4-3.3,4.5-4.4c1.6,1.8,3.4,3.6,4.7,5.7c0.2,0.3-2.2,3-2.7,2.8
			C647.1,452.4,645.4,450.9,642.5,449.1z"/>
		<path d="M630.1,444.4c2,3.3,3.5,5.1,4,7.1c0.2,0.7-2.7,3.1-3,3c-1.8-1.2-3.8-2.7-4.8-4.5C626,449.3,628.1,447.3,630.1,444.4z"/>
		<path d="M483.8,406.8c-1.3-2.5-3-4.5-2.5-5.4c0.9-1.8,2.9-3.1,4.5-4.5c1.1,1.4,3.3,3.3,3,4.3C488.2,403,486.1,404.4,483.8,406.8z"
			/>
		<path d="M423,441c2.5-2,4.1-4.1,5.1-3.9c1.6,0.4,3.4,2.3,3.8,3.9c0.2,1-2,3.7-3.2,3.6C427.2,444.6,425.6,442.8,423,441z"/>
		<path d="M521.6,415.6c-1.4-2.7-3.1-4.5-2.7-5.4c0.8-1.8,2.8-3,4.3-4.5c1,1.5,2.8,3.1,2.7,4.5C525.6,411.7,523.7,413,521.6,415.6z"
			/>
		<path d="M596.6,419.4c2.5-1.6,4-3.2,5.7-3.5c1-0.2,2.4,1.8,3.6,2.8c-1.5,1.7-2.9,3.5-4.4,5.2C600.2,422.7,598.9,421.5,596.6,419.4
			z"/>
		<path d="M551.4,457.9c-2,1.6-3.3,2.6-4.5,3.6c-1.1-1.4-2.9-2.7-3.1-4.3c-0.1-1.2,1.7-2.6,2.6-4
			C547.9,454.5,549.2,455.8,551.4,457.9z"/>
		<path d="M474.9,411.4c2.4-1.9,4-3.1,5.5-4.3c0.9,1.5,2.6,3,2.6,4.5c0,1.2-2.1,3.6-3,3.4C478.5,414.8,477.2,413.1,474.9,411.4z"/>
		<path d="M435.3,423.6c1.8,2.2,3.9,4.1,3.6,4.5c-0.9,1.5-2.5,2.9-4.1,3.6c-0.6,0.2-3-1.9-2.9-2.6
			C432.2,427.5,433.6,426.2,435.3,423.6z"/>
		<path d="M510.7,453.9c2-1.2,3.7-2.7,4.1-2.4c1.5,1.2,2.8,2.7,3.7,4.4c0.2,0.3-2.7,2.9-3.1,2.7
			C513.8,457.7,512.6,456.1,510.7,453.9z"/>
		<path d="M566.9,453.9c2.1-1.6,3.9-3.5,4.3-3.2c1.6,1.1,2.9,2.6,3.9,4.3c0.2,0.3-2,2.8-2.5,2.7C570.8,457,569.4,455.7,566.9,453.9z
			"/>
		<path d="M416.3,429.3c2.6-1.6,4-3.3,5.3-3.2c1.4,0.1,2.7,1.9,4,2.9c-1.3,1.1-2.4,2.8-3.8,3C420.5,432.2,419,430.7,416.3,429.3z"/>
		<path d="M412.7,436.6c2.3-1.2,3.8-2.7,4.9-2.4c1.4,0.4,2.4,2.1,3.6,3.3c-1.3,1-2.6,2.9-3.8,2.8
			C416.1,440.2,414.8,438.3,412.7,436.6z"/>
		<path d="M405.2,432.1c2-0.9,3.3-2.1,4.3-1.9c1.2,0.3,2.2,1.8,3.3,2.8c-1.2,1-2.4,2.7-3.6,2.7C408.1,435.7,407,433.8,405.2,432.1z"
			/>
		<path d="M557,526.7c-5.6-0.9-10.7-1.8-15.9-2.6c3.6-5.8,5.8-5.5,11.3-3.1c4.4,1.9,9.9,1.4,15,1.8c1.6,0.1,3.2-0.2,4.9-0.3
			c0.2,0.5,0.4,0.9,0.6,1.4c-1.8,1.7-3.7,3.3-5.5,5c0.3,0.1,0.5,0.1,0.8,0.2c-1,2.4-2,4.8-3.4,8.1c-1.7-2-2.5-3.1-3.7-4.5
			c-0.8,0.8-1.5,1.7-2.4,2.1c-1.5,0.8-3.2,1.3-4.8,1.9c0.3-1.6,0.4-3.2,0.9-4.8C555.1,530.4,555.9,529.1,557,526.7z"/>
		<path d="M587.3,547.5c-3.2,1.6-5.7,2.8-9.4,4.6c0-3.7-0.3-6.8,0.1-9.9c0.1-1.1,1.8-2.6,3-2.8c1-0.2,2.5,1.1,3.3,2.2
			C585.5,543.2,586.2,545.3,587.3,547.5z"/>
		<path d="M570.7,555.2c-2.1-1.3-4.2-2.6-6.3-3.9c-0.3,0.3-0.7,0.6-1,0.9c-1.6-3.4,0.6-5.2,3.4-6.1c1.5-0.5,4.1-0.2,5.1,0.8
			c2,2.1,2.7,4.9-0.3,7.2c-0.4,0.3-0.6,0.7-1,1.1C570.5,555.3,570.7,555.2,570.7,555.2z"/>
		<path d="M542.6,537.6c-2.8-3-1.2-6,0.2-8.7c0.5-1,2.4-1.8,3.7-1.7c1,0,2.4,1.4,2.6,2.4c0.2,1.2-0.3,2.9-1.2,3.8
			c-1.6,1.6-3.7,2.7-5.5,4.1C542.5,537.5,542.6,537.6,542.6,537.6z"/>
		<path d="M580.1,534c-3.3,0.7-6.1,1.5-8.9,1.7c-0.6,0.1-2.1-2.4-1.9-2.8c1.2-1.8,2.6-4.1,4.4-4.7c1-0.4,3.1,2,4.6,3.2
			C578.9,531.9,579.2,532.7,580.1,534z"/>
		<path d="M590.6,536.6c-2.2-0.7-4.3-1.3-6.5-2c0.9-1.4,1.8-2.9,2.6-4.3c1.7,1.3,3.4,2.5,5.1,3.8C591.4,535,591,535.8,590.6,536.6z"
			/>
		<path d="M616.7,526.1c-2.4,0.7-4.4,1.2-7.7,2.1c0.7-1.9,0.8-3.7,1.6-4.1C612.7,523.1,615.3,521.7,616.7,526.1z"/>
		<path d="M503.9,921.2c-0.2,4.9-5.1,9.6-9.8,9.4c-3.4-0.2-8.1-5.1-7.9-8.4c0.2-4.7,5.2-8.9,10.4-8.7
			C501.1,913.7,504,916.7,503.9,921.2z"/>
		<path d="M528.6,915c4.7-0.1,7.9,2.5,8,6.3c0,4.6-4.5,9.4-9.1,9.6c-3.6,0.2-8.4-4.3-8.4-7.8C519.1,920,524.8,915.1,528.6,915z"/>
		<path d="M658.9,927.2c-5.4,0-8.9-2.6-8.9-6.5c0.1-5,4-9.9,7.9-10c4.8-0.1,7.9,3.5,8,9.4C666,924.6,663.4,927.2,658.9,927.2z"/>
		<path d="M624,927.3c-4,0-6.3-1.7-6.3-6c0-4.6,5.4-10.8,9.4-9.7c2.2,0.6,4.6,3.7,5.3,6.1C633.4,921.3,627.6,927.2,624,927.3z"/>
		<path d="M726.2,919c-0.3,1.1-0.3,3.4-1.4,4.5c-1.6,1.6-5.4,3.7-5.9,3.1c-2.6-2.5-5-5.6-6.3-9c-0.7-1.8,0.3-5,1.6-6.6
			c1.2-1.4,4.3-2.2,6.1-1.7C724.4,910.6,725.9,914.2,726.2,919z"/>
	</g>
</g>
</svg>
