<?xml version="1.0" encoding="utf-8"?>
<!-- Generator: Adobe Illustrator 24.1.0, SVG Export Plug-In . SVG Version: 6.00 Build 0)  -->
<svg version="1.1" id="Layer_1" xmlns="http://www.w3.org/2000/svg" xmlns:xlink="http://www.w3.org/1999/xlink" x="0px" y="0px"
	 viewBox="0 0 612 792" style="enable-background:new 0 0 612 792;" xml:space="preserve">
<style type="text/css">
	.st0{fill:#020202;}
	.st1{fill:#FFCD05;}
	.st2{font-family:'Futura-Bold';}
	.st3{font-size:29.9741px;}
	.st4{font-size:37.5342px;}
</style>
<g>
	<circle class="st0" cx="272.6" cy="188.5" r="69.5"/>
	<circle class="st1" cx="279.1" cy="186.8" r="69.5"/>
	<g>
		<text transform="matrix(1 0 0 1 227.0669 185.3331)" class="st2 st3">City</text>
		<text transform="matrix(1 0 0 1 236.4097 212.3125)" class="st2 st3">Guide</text>
		<g>
			<g>
				<path d="M253.3,156.4c4.4-4.8,9.6-8.9,15.6-11.7c3-1.4,6.2-2.4,9.6-2.8c3.3-0.4,6.8-0.3,10.1,0.5c3.3,0.9,6.4,2.3,9.2,4.3
					c2.7,2,5.2,4.3,7.2,6.9c2.1,2.6,3.8,5.4,5.2,8.3c1.4,2.9,2.6,6,3.5,9.1c-1.6-2.8-3.1-5.7-4.8-8.3c-1.7-2.7-3.6-5.2-5.7-7.6
					c-4.2-4.6-9.4-8.4-15.3-9.8c-2.9-0.7-6-0.9-9.1-0.6c-3.1,0.3-6.1,1.1-9,2.2C263.9,149.1,258.5,152.5,253.3,156.4z"/>
			</g>
			<polygon points="308.5,165.9 313.3,163.4 314.2,170.9 			"/>
		</g>
	</g>
	<g>
		<path class="st0" d="M350.1,449.5l-123.2,8.4c-6.6,0.5-12.3-4.6-12.8-11.2l-8.4-123.2c-0.5-6.6,4.6-12.3,11.2-12.8l123.2-8.4
			c6.6-0.5,12.3,4.6,12.8,11.2l8.4,123.2C361.7,443.2,356.7,449,350.1,449.5z"/>
		<path class="st1" d="M359.9,450.4H236.3c-6.6,0-12-5.4-12-12V314.9c0-6.6,5.4-12,12-12h123.5c6.6,0,12,5.4,12,12v123.5
			C371.9,445,366.5,450.4,359.9,450.4z"/>
		<g>
			<text transform="matrix(1 0 0 1 236.4097 375.4395)" class="st2 st4">City</text>
			<text transform="matrix(1 0 0 1 248.1099 409.2256)" class="st2 st4">Guide</text>
			<g>
				<g>
					<path d="M269.2,339.2c5.6-5.8,12.2-10.9,19.7-14.3c3.7-1.7,7.8-2.9,11.9-3.5c4.2-0.5,8.4-0.4,12.5,0.6c4.1,1,8,2.9,11.4,5.3
						c3.4,2.4,6.4,5.3,9,8.6c2.6,3.2,4.7,6.7,6.6,10.3c1.8,3.7,3.3,7.4,4.6,11.3c-1.9-3.6-3.7-7.2-5.9-10.5
						c-2.1-3.4-4.5-6.6-7.1-9.6c-5.2-5.9-11.8-10.6-19.3-12.4c-3.7-0.9-7.6-1.1-11.5-0.7c-3.9,0.4-7.7,1.4-11.4,2.8
						C282.4,329.9,275.6,334.3,269.2,339.2z"/>
				</g>
				<polygon points="338.3,351.1 344.4,347.9 345.5,357.4 				"/>
			</g>
		</g>
	</g>
</g>
</svg>
